<svg width="24" height="24" viewBox="0 0 24 24" fill="none" xmlns="http://www.w3.org/2000/svg">
<g id="Group">
<path id="Vector" d="M11.9981 13L17.9981 22H5.99806L11.9981 13ZM11.9981 16.6L9.73806 20H14.2581L11.9981 16.6ZM10.9381 10.56C10.7907 10.4226 10.6725 10.257 10.5905 10.073C10.5085 9.88904 10.4644 9.69041 10.4609 9.489C10.4573 9.2876 10.4944 9.08754 10.5698 8.90076C10.6453 8.71399 10.7576 8.54432 10.9 8.40188C11.0424 8.25944 11.2121 8.14716 11.3989 8.07171C11.5856 7.99627 11.7857 7.95922 11.9871 7.96278C12.1885 7.96633 12.3871 8.01041 12.5711 8.0924C12.7551 8.17438 12.9207 8.29258 13.0581 8.43996C13.323 8.72431 13.4673 9.1004 13.4604 9.489C13.4536 9.87761 13.2961 10.2484 13.0213 10.5232C12.7465 10.798 12.3757 10.9555 11.9871 10.9623C11.5985 10.9692 11.2224 10.8249 10.9381 10.56ZM5.27907 2.78296L6.69407 4.19796C5.28773 5.60446 4.49767 7.51198 4.49767 9.50096C4.49767 11.4899 5.28773 13.3975 6.69407 14.804L5.27907 16.219C4.39676 15.3368 3.69688 14.2895 3.21937 13.1368C2.74186 11.9841 2.49609 10.7486 2.49609 9.50096C2.49609 8.25329 2.74186 7.01783 3.21937 5.86515C3.69688 4.71247 4.39676 3.66513 5.27907 2.78296ZM18.7151 2.78296C19.5974 3.66513 20.2973 4.71247 20.7748 5.86515C21.2523 7.01783 21.498 8.25329 21.498 9.50096C21.498 10.7486 21.2523 11.9841 20.7748 13.1368C20.2973 14.2895 19.5974 15.3368 18.7151 16.219L17.3001 14.804C18.7064 13.3975 19.4965 11.4899 19.4965 9.50096C19.4965 7.51198 18.7064 5.60446 17.3001 4.19796L18.7151 2.78296ZM8.10806 5.61096L9.52207 7.02496C9.19702 7.34997 8.93918 7.73582 8.76327 8.16048C8.58735 8.58515 8.49681 9.0403 8.49681 9.49996C8.49681 9.95962 8.58735 10.4148 8.76327 10.8394C8.93918 11.2641 9.19702 11.65 9.52207 11.975L8.10806 13.389C7.07667 12.3575 6.49724 10.9586 6.49724 9.49996C6.49724 8.04131 7.07667 6.6424 8.10806 5.61096ZM15.8861 5.61096C16.9175 6.6424 17.4969 8.04131 17.4969 9.49996C17.4969 10.9586 16.9175 12.3575 15.8861 13.389L14.4721 11.975C14.7971 11.65 15.0549 11.2641 15.2309 10.8394C15.4068 10.4148 15.4973 9.95962 15.4973 9.49996C15.4973 9.0403 15.4068 8.58515 15.2309 8.16048C15.0549 7.73582 14.7971 7.34997 14.4721 7.02496L15.8861 5.61096Z" fill="#4458FF"/>
</g>
</svg>
