<svg width="131" height="105" viewBox="0 0 131 105" fill="none" xmlns="http://www.w3.org/2000/svg">
<mask id="mask0_489_3018" style="mask-type:alpha" maskUnits="userSpaceOnUse" x="0" y="0" width="131" height="105">
<path fill-rule="evenodd" clip-rule="evenodd" d="M111.901 88.5595C96.7172 99.5476 79.638 104.5 58.8125 104.5C33.5794 104.5 0.809409 92.0969 0.500882 54.5561C0.302544 16.949 33.5794 0.5 60.7297 0.5C84.0455 0.5 103.857 7.7517 111.901 13.301V34.1718C105.158 29.9269 92.7945 25.085 81.5333 25.1956C68.5751 25.3061 54.4931 33.8844 54.4931 52.3452C54.4931 70.6956 69.9855 77.8588 83.3403 77.9694C93.3014 77.9694 104.849 73.3265 111.901 67.2687V88.5595ZM122.259 48.0119H130.501V37.7313H95.1084V48.0119H103.549V63.4439H122.259V48.0119ZM23.5302 83.9167V42.9711C23.5302 39.0357 26.4392 34.7908 31.3756 34.9014C36.312 35.0119 39.1108 38.9252 39.0227 42.9711C38.8243 47.1054 34.3948 50.7313 31.3756 50.7313C29.1718 50.7313 27.7614 50.4218 27.1444 49.8248V60.8129C28.1581 61.5204 28.0479 61.7194 31.3756 61.7194C41.3366 61.7194 49.8652 52.2347 49.8652 42.949C49.8652 33.7738 42.6368 24.1786 31.3756 24.1786C20.1144 24.1786 12.886 35.1667 12.886 42.949V72.3095C12.864 78.4779 18.3954 81.9048 23.5302 83.9167Z" fill="white" stroke="white"/>
</mask>
<g mask="url(#mask0_489_3018)">
<line x1="-76.7121" y1="113.288" x2="134.288" y2="-97.7121" stroke="white" stroke-width="0.6"/>
<line x1="-72.7121" y1="113.288" x2="138.288" y2="-97.7121" stroke="white" stroke-width="0.6"/>
<line x1="-68.7121" y1="113.288" x2="142.288" y2="-97.7121" stroke="white" stroke-width="0.6"/>
<line x1="-64.7121" y1="113.288" x2="146.288" y2="-97.7121" stroke="white" stroke-width="0.6"/>
<line x1="-60.7121" y1="113.288" x2="150.288" y2="-97.7121" stroke="white" stroke-width="0.6"/>
<line x1="-56.7121" y1="113.288" x2="154.288" y2="-97.7121" stroke="white" stroke-width="0.6"/>
<line x1="-52.7121" y1="113.288" x2="158.288" y2="-97.7121" stroke="white" stroke-width="0.6"/>
<line x1="-48.7121" y1="113.288" x2="162.288" y2="-97.7121" stroke="white" stroke-width="0.6"/>
<line x1="-44.7121" y1="113.288" x2="166.288" y2="-97.7121" stroke="white" stroke-width="0.6"/>
<line x1="-40.7121" y1="113.288" x2="170.288" y2="-97.7121" stroke="white" stroke-width="0.6"/>
<line x1="-36.7121" y1="113.288" x2="174.288" y2="-97.7121" stroke="white" stroke-width="0.6"/>
<line x1="-32.7121" y1="113.288" x2="178.288" y2="-97.7121" stroke="white" stroke-width="0.6"/>
<line x1="-28.7121" y1="113.288" x2="182.288" y2="-97.7121" stroke="white" stroke-width="0.6"/>
<line x1="-24.7121" y1="113.288" x2="186.288" y2="-97.7121" stroke="white" stroke-width="0.6"/>
<line x1="-20.7121" y1="113.288" x2="190.288" y2="-97.7121" stroke="white" stroke-width="0.6"/>
<line x1="-16.7121" y1="113.288" x2="194.288" y2="-97.7121" stroke="white" stroke-width="0.6"/>
<line x1="-12.7121" y1="113.288" x2="198.288" y2="-97.7121" stroke="white" stroke-width="0.6"/>
<line x1="-8.71213" y1="113.288" x2="202.288" y2="-97.7121" stroke="white" stroke-width="0.6"/>
<line x1="-4.71213" y1="113.288" x2="206.288" y2="-97.7121" stroke="white" stroke-width="0.6"/>
<line x1="-0.712132" y1="113.288" x2="210.288" y2="-97.7121" stroke="white" stroke-width="0.6"/>
<line x1="3.28787" y1="113.288" x2="214.288" y2="-97.7121" stroke="white" stroke-width="0.6"/>
<line x1="7.28787" y1="113.288" x2="218.288" y2="-97.7121" stroke="white" stroke-width="0.6"/>
<line x1="11.2879" y1="113.288" x2="222.288" y2="-97.7121" stroke="white" stroke-width="0.6"/>
<line x1="15.2879" y1="113.288" x2="226.288" y2="-97.7121" stroke="white" stroke-width="0.6"/>
<line x1="19.2879" y1="113.288" x2="230.288" y2="-97.7121" stroke="white" stroke-width="0.6"/>
<line x1="23.2879" y1="113.288" x2="234.288" y2="-97.7121" stroke="white" stroke-width="0.6"/>
<line x1="27.2879" y1="113.288" x2="238.288" y2="-97.7121" stroke="white" stroke-width="0.6"/>
<line x1="31.2879" y1="113.288" x2="242.288" y2="-97.7121" stroke="white" stroke-width="0.6"/>
<line x1="35.2879" y1="113.288" x2="246.288" y2="-97.7121" stroke="white" stroke-width="0.6"/>
<line x1="39.2879" y1="113.288" x2="250.288" y2="-97.7121" stroke="white" stroke-width="0.6"/>
<line x1="43.2879" y1="113.288" x2="254.288" y2="-97.7121" stroke="white" stroke-width="0.6"/>
<line x1="47.2879" y1="113.288" x2="258.288" y2="-97.7121" stroke="white" stroke-width="0.6"/>
<line x1="51.2879" y1="113.288" x2="262.288" y2="-97.7121" stroke="white" stroke-width="0.6"/>
<line x1="55.2879" y1="113.288" x2="266.288" y2="-97.7121" stroke="white" stroke-width="0.6"/>
<line x1="59.2879" y1="113.288" x2="270.288" y2="-97.7121" stroke="white" stroke-width="0.6"/>
<line x1="63.2879" y1="113.288" x2="274.288" y2="-97.7121" stroke="white" stroke-width="0.6"/>
<line x1="67.2879" y1="113.288" x2="278.288" y2="-97.7121" stroke="white" stroke-width="0.6"/>
<line x1="71.2879" y1="113.288" x2="282.288" y2="-97.7121" stroke="white" stroke-width="0.6"/>
<line x1="75.2879" y1="113.288" x2="286.288" y2="-97.7121" stroke="white" stroke-width="0.6"/>
<line x1="79.2879" y1="113.288" x2="290.288" y2="-97.7121" stroke="white" stroke-width="0.6"/>
<line x1="83.2879" y1="113.288" x2="294.288" y2="-97.7121" stroke="white" stroke-width="0.6"/>
<line x1="87.2879" y1="113.288" x2="298.288" y2="-97.7121" stroke="white" stroke-width="0.6"/>
<line x1="91.2879" y1="113.288" x2="302.288" y2="-97.7121" stroke="white" stroke-width="0.6"/>
<line x1="95.2879" y1="113.288" x2="306.288" y2="-97.7121" stroke="white" stroke-width="0.6"/>
</g>
<path d="M31.376 24.4287C25.8327 24.4287 21.2745 27.1315 18.0967 30.8086C14.915 34.4901 13.1357 39.1269 13.1357 42.9492V72.3105C13.1251 75.3092 14.4611 77.6449 16.4443 79.4883C18.3443 81.2541 20.8342 82.5579 23.2803 83.5439V42.9707C23.2805 38.9342 26.2685 34.5371 31.3809 34.6514C36.3174 34.7619 39.1808 38.5658 39.2725 42.5869V42.9834C39.1692 45.1341 37.9689 47.1307 36.4287 48.583C34.8926 50.0313 32.972 50.9813 31.376 50.9814C30.2643 50.9814 29.3411 50.9032 28.6123 50.7461C28.1294 50.642 27.7203 50.4988 27.3945 50.3135V60.6846C27.8475 61.0075 28.0293 61.1753 28.457 61.29C28.9346 61.4181 29.7051 61.4697 31.376 61.4697C36.2757 61.4696 40.8355 59.1356 44.1748 55.6436C47.515 52.1505 49.6152 47.5176 49.6152 42.9492C49.6152 33.8886 42.4764 24.4289 31.376 24.4287ZM130.751 37.4814V48.2617H122.509V63.6943H103.299V48.2617H94.8584V37.4814H130.751ZM112.151 34.625L111.768 34.3838C105.053 30.1573 92.7373 25.3355 81.5361 25.4453H81.5352C75.1073 25.5002 68.4067 27.6564 63.3174 32.0781C58.2339 36.495 54.7432 43.1854 54.7432 52.3457C54.7433 61.4395 58.5775 67.7436 64.0576 71.7959C69.5474 75.8553 76.7033 77.6637 83.3418 77.7188C93.239 77.7183 104.729 73.1002 111.738 67.0791L112.151 66.7246V88.6875L112.048 88.7617C96.8148 99.7854 79.682 104.75 58.8125 104.75C46.1613 104.75 31.6069 101.642 20.1689 93.8125C8.71933 85.975 0.406061 73.4141 0.250977 54.5586V54.5576C0.151361 35.6694 8.46249 22.0827 20.209 13.2256C31.9473 4.37473 47.1092 0.250049 60.7295 0.25C84.0863 0.25 103.95 7.51253 112.043 13.0957L112.151 13.1699V34.625Z" stroke="white" stroke-width="0.5"/>
<path d="M111.901 88.5595C96.7172 99.5476 79.638 104.5 58.8125 104.5C33.5794 104.5 0.809409 92.0969 0.500882 54.5561C0.302544 16.949 33.5794 0.5 60.7297 0.5C84.0455 0.5 103.857 7.7517 111.901 13.301" stroke="white"/>
<path d="M31.376 24.3789C42.5086 24.3791 49.665 33.8657 49.665 42.9492C49.665 47.5325 47.5585 52.1769 44.2109 55.6777C40.8641 59.1778 36.2919 61.5194 31.376 61.5195C29.7066 61.5195 28.9294 61.468 28.4443 61.3379C27.9997 61.2186 27.8094 61.0401 27.3447 60.71V50.2256C27.6749 50.429 28.1042 50.5854 28.623 50.6973C29.3471 50.8533 30.2664 50.9316 31.376 50.9316C32.9547 50.9315 34.8637 49.9902 36.3945 48.5469C37.9287 47.1003 39.1203 45.1146 39.2227 42.9805V42.5879C39.1316 38.5894 36.2855 34.811 31.3799 34.7012C26.3027 34.5876 23.3303 38.9544 23.3301 42.9707V83.6182C20.8593 82.6279 18.3342 81.3137 16.4102 79.5254C14.4191 77.6749 13.0753 75.3263 13.0859 72.3105V42.9492C13.0859 39.1131 14.8713 34.4656 18.0596 30.7764C21.2447 27.0908 25.8153 24.3789 31.376 24.3789Z" stroke="white" stroke-width="0.4"/>
<path d="M130.4 37.8311V47.9121H122.158V63.3438H103.648V47.9121H95.208V37.8311H130.4Z" fill="#0064FA" stroke="white" stroke-width="0.2"/>
</svg>
