<svg width="132" height="106" viewBox="0 0 132 106" fill="none" xmlns="http://www.w3.org/2000/svg">
<g id="Group">
<g id="Mask group">
<mask id="mask0_4063_10918" style="mask-type:alpha" maskUnits="userSpaceOnUse" x="0" y="0" width="132" height="106">
<path id="Vector" fill-rule="evenodd" clip-rule="evenodd" d="M112.401 89.0595C97.2172 100.048 80.138 105 59.3125 105C34.0794 105 1.30941 92.5969 1.00088 55.0561C0.802544 17.449 34.0794 1 61.2297 1C84.5455 1 104.357 8.2517 112.401 13.801V34.6718C105.658 30.4269 93.2945 25.585 82.0333 25.6956C69.0751 25.8061 54.9931 34.3844 54.9931 52.8452C54.9931 71.1956 70.4855 78.3588 83.8403 78.4694C93.8014 78.4694 105.349 73.8265 112.401 67.7687V89.0595ZM122.759 48.5119H131.001V38.2313H95.6084V48.5119H104.049V63.9439H122.759V48.5119ZM24.0302 84.4167V43.4711C24.0302 39.5357 26.9392 35.2908 31.8756 35.4014C36.812 35.5119 39.6108 39.4252 39.5227 43.4711C39.3243 47.6054 34.8948 51.2313 31.8756 51.2313C29.6718 51.2313 28.2614 50.9218 27.6444 50.3248V61.3129C28.6581 62.0204 28.5479 62.2194 31.8756 62.2194C41.8366 62.2194 50.3652 52.7347 50.3652 43.449C50.3652 34.2738 43.1368 24.6786 31.8756 24.6786C20.6144 24.6786 13.386 35.6667 13.386 43.449V72.8095C13.364 78.9779 18.8954 82.4048 24.0302 84.4167Z" fill="white" stroke="white"/>
</mask>
<g mask="url(#mask0_4063_10918)">
<line id="Line 27" x1="-76.2121" y1="113.788" x2="134.788" y2="-97.2121" stroke="white" stroke-width="0.6"/>
<line id="Line 28" x1="-72.2121" y1="113.788" x2="138.788" y2="-97.2121" stroke="white" stroke-width="0.6"/>
<line id="Line 29" x1="-68.2121" y1="113.788" x2="142.788" y2="-97.2121" stroke="white" stroke-width="0.6"/>
<line id="Line 30" x1="-64.2121" y1="113.788" x2="146.788" y2="-97.2121" stroke="white" stroke-width="0.6"/>
<line id="Line 31" x1="-60.2121" y1="113.788" x2="150.788" y2="-97.2121" stroke="white" stroke-width="0.6"/>
<line id="Line 32" x1="-56.2121" y1="113.788" x2="154.788" y2="-97.2121" stroke="white" stroke-width="0.6"/>
<line id="Line 33" x1="-52.2121" y1="113.788" x2="158.788" y2="-97.2121" stroke="white" stroke-width="0.6"/>
<line id="Line 34" x1="-48.2121" y1="113.788" x2="162.788" y2="-97.2121" stroke="white" stroke-width="0.6"/>
<line id="Line 35" x1="-44.2121" y1="113.788" x2="166.788" y2="-97.2121" stroke="white" stroke-width="0.6"/>
<line id="Line 36" x1="-40.2121" y1="113.788" x2="170.788" y2="-97.2121" stroke="white" stroke-width="0.6"/>
<line id="Line 37" x1="-36.2121" y1="113.788" x2="174.788" y2="-97.2121" stroke="white" stroke-width="0.6"/>
<line id="Line 38" x1="-32.2121" y1="113.788" x2="178.788" y2="-97.2121" stroke="white" stroke-width="0.6"/>
<line id="Line 39" x1="-28.2121" y1="113.788" x2="182.788" y2="-97.2121" stroke="white" stroke-width="0.6"/>
<line id="Line 40" x1="-24.2121" y1="113.788" x2="186.788" y2="-97.2121" stroke="white" stroke-width="0.6"/>
<line id="Line 41" x1="-20.2121" y1="113.788" x2="190.788" y2="-97.2121" stroke="white" stroke-width="0.6"/>
<line id="Line 42" x1="-16.2121" y1="113.788" x2="194.788" y2="-97.2121" stroke="white" stroke-width="0.6"/>
<line id="Line 43" x1="-12.2121" y1="113.788" x2="198.788" y2="-97.2121" stroke="white" stroke-width="0.6"/>
<line id="Line 44" x1="-8.21213" y1="113.788" x2="202.788" y2="-97.2121" stroke="white" stroke-width="0.6"/>
<line id="Line 45" x1="-4.21213" y1="113.788" x2="206.788" y2="-97.2121" stroke="white" stroke-width="0.6"/>
<line id="Line 46" x1="-0.212132" y1="113.788" x2="210.788" y2="-97.2121" stroke="white" stroke-width="0.6"/>
<line id="Line 47" x1="3.78787" y1="113.788" x2="214.788" y2="-97.2121" stroke="white" stroke-width="0.6"/>
<line id="Line 48" x1="7.78787" y1="113.788" x2="218.788" y2="-97.2121" stroke="white" stroke-width="0.6"/>
<line id="Line 49" x1="11.7879" y1="113.788" x2="222.788" y2="-97.2121" stroke="white" stroke-width="0.6"/>
<line id="Line 50" x1="15.7879" y1="113.788" x2="226.788" y2="-97.2121" stroke="white" stroke-width="0.6"/>
<line id="Line 51" x1="19.7879" y1="113.788" x2="230.788" y2="-97.2121" stroke="white" stroke-width="0.6"/>
<line id="Line 52" x1="23.7879" y1="113.788" x2="234.788" y2="-97.2121" stroke="white" stroke-width="0.6"/>
<line id="Line 53" x1="27.7879" y1="113.788" x2="238.788" y2="-97.2121" stroke="white" stroke-width="0.6"/>
<line id="Line 54" x1="31.7879" y1="113.788" x2="242.788" y2="-97.2121" stroke="white" stroke-width="0.6"/>
<line id="Line 55" x1="35.7879" y1="113.788" x2="246.788" y2="-97.2121" stroke="white" stroke-width="0.6"/>
<line id="Line 56" x1="39.7879" y1="113.788" x2="250.788" y2="-97.2121" stroke="white" stroke-width="0.6"/>
<line id="Line 57" x1="43.7879" y1="113.788" x2="254.788" y2="-97.2121" stroke="white" stroke-width="0.6"/>
<line id="Line 58" x1="47.7879" y1="113.788" x2="258.788" y2="-97.2121" stroke="white" stroke-width="0.6"/>
<line id="Line 59" x1="51.7879" y1="113.788" x2="262.788" y2="-97.2121" stroke="white" stroke-width="0.6"/>
<line id="Line 60" x1="55.7879" y1="113.788" x2="266.788" y2="-97.2121" stroke="white" stroke-width="0.6"/>
<line id="Line 61" x1="59.7879" y1="113.788" x2="270.788" y2="-97.2121" stroke="white" stroke-width="0.6"/>
<line id="Line 62" x1="63.7879" y1="113.788" x2="274.788" y2="-97.2121" stroke="white" stroke-width="0.6"/>
<line id="Line 63" x1="67.7879" y1="113.788" x2="278.788" y2="-97.2121" stroke="white" stroke-width="0.6"/>
<line id="Line 64" x1="71.7879" y1="113.788" x2="282.788" y2="-97.2121" stroke="white" stroke-width="0.6"/>
<line id="Line 65" x1="75.7879" y1="113.788" x2="286.788" y2="-97.2121" stroke="white" stroke-width="0.6"/>
<line id="Line 66" x1="79.7879" y1="113.788" x2="290.788" y2="-97.2121" stroke="white" stroke-width="0.6"/>
<line id="Line 67" x1="83.7879" y1="113.788" x2="294.788" y2="-97.2121" stroke="white" stroke-width="0.6"/>
<line id="Line 68" x1="87.7879" y1="113.788" x2="298.788" y2="-97.2121" stroke="white" stroke-width="0.6"/>
<line id="Line 69" x1="91.7879" y1="113.788" x2="302.788" y2="-97.2121" stroke="white" stroke-width="0.6"/>
<line id="Line 70" x1="95.7879" y1="113.788" x2="306.788" y2="-97.2121" stroke="white" stroke-width="0.6"/>
</g>
</g>
<path id="Vector_2" d="M112.548 89.2621L112.651 89.1872V89.0595V67.7687V67.2244L112.238 67.5791C105.229 73.6002 93.7387 78.219 83.8415 78.2194C77.203 78.1643 70.047 76.3556 64.5573 72.2962C59.0771 68.2438 55.2431 61.9393 55.2431 52.8452C55.2431 43.6846 58.7341 36.9946 63.8178 32.5778C68.9072 28.156 75.6075 26.0004 82.0354 25.9456L82.0357 25.9456C93.237 25.8356 105.554 30.6568 112.268 34.8833L112.651 35.1245V34.6718V13.801V13.6698L112.543 13.5952C104.45 8.01207 84.5866 0.75 61.2297 0.75C47.6094 0.75 32.4474 4.87483 20.709 13.7258C8.96253 22.5829 0.65127 36.1692 0.750885 55.0574L0.750891 55.0582C0.905855 73.9139 9.21905 86.4746 20.6687 94.3122C32.1068 102.142 46.6612 105.25 59.3125 105.25C80.182 105.25 97.3146 100.286 112.548 89.2621ZM123.009 63.9439V48.7619H131.001H131.251V48.5119V38.2313V37.9813H131.001H95.6084H95.3584V38.2313V48.5119V48.7619H95.6084H103.799V63.9439V64.1939H104.049H122.759H123.009V63.9439ZM39.7724 43.4831L39.7725 43.4831L39.7726 43.4765C39.8633 39.315 36.9769 35.2655 31.8812 35.1514C26.7685 35.0369 23.7802 39.4344 23.7802 43.4711V84.0483C21.3337 83.0622 18.8448 81.7548 16.9445 79.9886C14.9611 78.1452 13.6253 75.8093 13.636 72.8104V72.8095V43.449C13.636 39.6267 15.4153 34.9904 18.597 31.3089C21.7748 27.6318 26.3323 24.9286 31.8756 24.9286C42.9763 24.9286 50.1152 34.3883 50.1152 43.449C50.1152 48.0175 48.0153 52.6504 44.6751 56.1436C41.3357 59.6358 36.7755 61.9694 31.8756 61.9694C30.2047 61.9694 29.4346 61.9181 28.957 61.79C28.5963 61.6932 28.4109 61.5583 28.09 61.3247C28.0302 61.2811 27.9657 61.2342 27.8944 61.1834V50.816C28.22 51.0011 28.6299 51.1423 29.1123 51.2463C29.8411 51.4034 30.7639 51.4813 31.8756 51.4813C33.4717 51.4813 35.3922 50.5319 36.9284 49.0835C38.4689 47.6311 39.6692 45.6341 39.7724 43.4831Z" stroke="white" stroke-width="0.5"/>
<path id="Vector_3" d="M112.401 89.0595C97.2172 100.048 80.138 105 59.3125 105C34.0794 105 1.30941 92.5969 1.00088 55.0561C0.802544 17.449 34.0794 1 61.2297 1C84.5455 1 104.357 8.2517 112.401 13.801" stroke="white"/>
<path id="Vector_4" d="M39.7224 43.4807L39.7225 43.4807L39.7226 43.4754C39.8128 39.337 36.944 35.3148 31.8801 35.2014C26.8026 35.0877 23.8302 39.4547 23.8302 43.4711V84.1223C21.359 83.1319 18.8349 81.8139 16.9105 80.0253C14.9193 78.1747 13.5753 75.8262 13.586 72.8102V72.8095V43.449C13.586 39.6129 15.3709 34.9654 18.5592 31.2762C21.7444 27.5906 26.3148 24.8786 31.8756 24.8786C43.0084 24.8786 50.1652 34.3654 50.1652 43.449C50.1652 48.0323 48.0589 52.6772 44.7112 56.1781C41.3643 59.6783 36.7916 62.0194 31.8756 62.0194C30.2061 62.0194 29.4292 61.9684 28.9441 61.8383C28.5738 61.739 28.3802 61.598 28.0574 61.3629C27.9924 61.3156 27.9223 61.2645 27.8444 61.2092V50.7283C28.1744 50.9315 28.6045 51.0857 29.1228 51.1974C29.847 51.3535 30.7659 51.4313 31.8756 51.4313C33.4544 51.4313 35.3632 50.4905 36.8941 49.0471C38.4285 47.6005 39.62 45.6149 39.7224 43.4807Z" stroke="white" stroke-width="0.4"/>
<path id="Vector_5" d="M104.048 48.4121H95.7079V38.3314H130.9V48.4121H122.758H122.658V48.5121V63.844H104.148V48.5121V48.4121H104.048Z" fill="#4458FF" stroke="white" stroke-width="0.2"/>
</g>
</svg>
