<svg width="16" height="16" viewBox="0 0 16 16" fill="none" xmlns="http://www.w3.org/2000/svg">
<g id="Group">
<path id="Vector" d="M5.22079 13.3331C5.10809 13.6517 4.91653 13.9366 4.66398 14.1611C4.41143 14.3857 4.10611 14.5426 3.77652 14.6172C3.44693 14.6918 3.10381 14.6818 2.77916 14.588C2.45451 14.4941 2.15892 14.3196 1.91997 14.0806C1.68101 13.8417 1.50648 13.5461 1.41265 13.2214C1.31882 12.8968 1.30875 12.5537 1.38339 12.2241C1.45803 11.8945 1.61494 11.5892 1.83948 11.3366C2.06401 11.0841 2.34887 10.8925 2.66746 10.7798V5.21981C2.34887 5.10712 2.06401 4.91556 1.83948 4.663C1.61494 4.41045 1.45803 4.10514 1.38339 3.77555C1.30875 3.44596 1.31882 3.10283 1.41265 2.77819C1.50648 2.45354 1.68101 2.15795 1.91997 1.91899C2.15892 1.68003 2.45451 1.5055 2.77916 1.41167C3.10381 1.31784 3.44693 1.30778 3.77652 1.38241C4.10611 1.45705 4.41143 1.61396 4.66398 1.8385C4.91653 2.06304 5.10809 2.34789 5.22079 2.66648H10.7808C10.8935 2.34789 11.085 2.06304 11.3376 1.8385C11.5902 1.61396 11.8955 1.45705 12.2251 1.38241C12.5546 1.30778 12.8978 1.31784 13.2224 1.41167C13.5471 1.5055 13.8427 1.68003 14.0816 1.91899C14.3206 2.15795 14.4951 2.45354 14.5889 2.77819C14.6828 3.10283 14.6928 3.44596 14.6182 3.77555C14.5436 4.10514 14.3866 4.41045 14.1621 4.663C13.9376 4.91556 13.6527 5.10712 13.3341 5.21981V10.7798C13.6527 10.8925 13.9376 11.0841 14.1621 11.3366C14.3866 11.5892 14.5436 11.8945 14.6182 12.2241C14.6928 12.5537 14.6828 12.8968 14.5889 13.2214C14.4951 13.5461 14.3206 13.8417 14.0816 14.0806C13.8427 14.3196 13.5471 14.4941 13.2224 14.588C12.8978 14.6818 12.5546 14.6918 12.2251 14.6172C11.8955 14.5426 11.5902 14.3857 11.3376 14.1611C11.085 13.9366 10.8935 13.6517 10.7808 13.3331H5.22079ZM5.22079 11.9998H10.7808C10.8805 11.7185 11.0418 11.463 11.2529 11.2519C11.4639 11.0408 11.7195 10.8796 12.0008 10.7798V5.21981C11.7195 5.12007 11.4639 4.95879 11.2529 4.74773C11.0418 4.53666 10.8805 4.28115 10.7808 3.99981H5.22079C5.12105 4.28115 4.95977 4.53666 4.7487 4.74773C4.53764 4.95879 4.28212 5.12007 4.00079 5.21981V10.7798C4.28212 10.8796 4.53764 11.0408 4.7487 11.2519C4.95977 11.463 5.12105 11.7185 5.22079 11.9998ZM3.33412 3.99981C3.51093 3.99981 3.6805 3.92957 3.80553 3.80455C3.93055 3.67953 4.00079 3.50996 4.00079 3.33315C4.00079 3.15634 3.93055 2.98677 3.80553 2.86174C3.6805 2.73672 3.51093 2.66648 3.33412 2.66648C3.15731 2.66648 2.98774 2.73672 2.86272 2.86174C2.73769 2.98677 2.66746 3.15634 2.66746 3.33315C2.66746 3.50996 2.73769 3.67953 2.86272 3.80455C2.98774 3.92957 3.15731 3.99981 3.33412 3.99981ZM12.6675 3.99981C12.8443 3.99981 13.0138 3.92957 13.1389 3.80455C13.2639 3.67953 13.3341 3.50996 13.3341 3.33315C13.3341 3.15634 13.2639 2.98677 13.1389 2.86174C13.0138 2.73672 12.8443 2.66648 12.6675 2.66648C12.4906 2.66648 12.3211 2.73672 12.1961 2.86174C12.071 2.98677 12.0008 3.15634 12.0008 3.33315C12.0008 3.50996 12.071 3.67953 12.1961 3.80455C12.3211 3.92957 12.4906 3.99981 12.6675 3.99981ZM12.6675 13.3331C12.8443 13.3331 13.0138 13.2629 13.1389 13.1379C13.2639 13.0129 13.3341 12.8433 13.3341 12.6665C13.3341 12.4897 13.2639 12.3201 13.1389 12.1951C13.0138 12.0701 12.8443 11.9998 12.6675 11.9998C12.4906 11.9998 12.3211 12.0701 12.1961 12.1951C12.071 12.3201 12.0008 12.4897 12.0008 12.6665C12.0008 12.8433 12.071 13.0129 12.1961 13.1379C12.3211 13.2629 12.4906 13.3331 12.6675 13.3331ZM3.33412 13.3331C3.51093 13.3331 3.6805 13.2629 3.80553 13.1379C3.93055 13.0129 4.00079 12.8433 4.00079 12.6665C4.00079 12.4897 3.93055 12.3201 3.80553 12.1951C3.6805 12.0701 3.51093 11.9998 3.33412 11.9998C3.15731 11.9998 2.98774 12.0701 2.86272 12.1951C2.73769 12.3201 2.66746 12.4897 2.66746 12.6665C2.66746 12.8433 2.73769 13.0129 2.86272 13.1379C2.98774 13.2629 3.15731 13.3331 3.33412 13.3331Z" fill="#23242C"/>
</g>
</svg>
