<svg width="24" height="24" viewBox="0 0 24 24" fill="none" xmlns="http://www.w3.org/2000/svg">
<g id="Group">
<path id="Vector" d="M7.83021 20C7.66116 20.4778 7.37382 20.9051 6.99499 21.2419C6.61617 21.5787 6.1582 21.8141 5.66381 21.9261C5.16943 22.038 4.65474 22.0229 4.16777 21.8822C3.68079 21.7414 3.23741 21.4796 2.87897 21.1212C2.52054 20.7628 2.25874 20.3194 2.11799 19.8324C1.97725 19.3454 1.96215 18.8307 2.07411 18.3364C2.18607 17.842 2.42143 17.384 2.75824 17.0052C3.09504 16.6264 3.52232 16.339 4.00021 16.17V7.82996C3.52232 7.66092 3.09504 7.37358 2.75824 6.99475C2.42143 6.61592 2.18607 6.15795 2.07411 5.66357C1.96215 5.16918 1.97725 4.65449 2.11799 4.16752C2.25874 3.68055 2.52054 3.23716 2.87897 2.87873C3.23741 2.52029 3.68079 2.25849 4.16777 2.11775C4.65474 1.97701 5.16943 1.96191 5.66381 2.07387C6.1582 2.18582 6.61617 2.42118 6.99499 2.75799C7.37382 3.0948 7.66116 3.52208 7.83021 3.99996H16.1702C16.3393 3.52208 16.6266 3.0948 17.0054 2.75799C17.3843 2.42118 17.8422 2.18582 18.3366 2.07387C18.831 1.96191 19.3457 1.97701 19.8326 2.11775C20.3196 2.25849 20.763 2.52029 21.1214 2.87873C21.4799 3.23716 21.7417 3.68055 21.8824 4.16752C22.0232 4.65449 22.0383 5.16918 21.9263 5.66357C21.8144 6.15795 21.579 6.61592 21.2422 6.99475C20.9054 7.37358 20.4781 7.66092 20.0002 7.82996V16.17C20.4781 16.339 20.9054 16.6264 21.2422 17.0052C21.579 17.384 21.8144 17.842 21.9263 18.3364C22.0383 18.8307 22.0232 19.3454 21.8824 19.8324C21.7417 20.3194 21.4799 20.7628 21.1214 21.1212C20.763 21.4796 20.3196 21.7414 19.8326 21.8822C19.3457 22.0229 18.831 22.038 18.3366 21.9261C17.8422 21.8141 17.3843 21.5787 17.0054 21.2419C16.6266 20.9051 16.3393 20.4778 16.1702 20H7.83021ZM7.83021 18H16.1702C16.3198 17.578 16.5617 17.1947 16.8783 16.8781C17.1949 16.5615 17.5782 16.3196 18.0002 16.17V7.82996C17.5782 7.68036 17.1949 7.43843 16.8783 7.12183C16.5617 6.80524 16.3198 6.42196 16.1702 5.99996H7.83021C7.6806 6.42196 7.43867 6.80524 7.12208 7.12183C6.80548 7.43843 6.42221 7.68036 6.00021 7.82996V16.17C6.42221 16.3196 6.80548 16.5615 7.12208 16.8781C7.43867 17.1947 7.6806 17.578 7.83021 18ZM5.00021 5.99996C5.26542 5.99996 5.51978 5.89461 5.70731 5.70707C5.89485 5.51953 6.00021 5.26518 6.00021 4.99996C6.00021 4.73475 5.89485 4.48039 5.70731 4.29286C5.51978 4.10532 5.26542 3.99996 5.00021 3.99996C4.73499 3.99996 4.48064 4.10532 4.2931 4.29286C4.10556 4.48039 4.00021 4.73475 4.00021 4.99996C4.00021 5.26518 4.10556 5.51953 4.2931 5.70707C4.48064 5.89461 4.73499 5.99996 5.00021 5.99996ZM19.0002 5.99996C19.2654 5.99996 19.5198 5.89461 19.7073 5.70707C19.8949 5.51953 20.0002 5.26518 20.0002 4.99996C20.0002 4.73475 19.8949 4.48039 19.7073 4.29286C19.5198 4.10532 19.2654 3.99996 19.0002 3.99996C18.735 3.99996 18.4806 4.10532 18.2931 4.29286C18.1056 4.48039 18.0002 4.73475 18.0002 4.99996C18.0002 5.26518 18.1056 5.51953 18.2931 5.70707C18.4806 5.89461 18.735 5.99996 19.0002 5.99996ZM19.0002 20C19.2654 20 19.5198 19.8946 19.7073 19.7071C19.8949 19.5195 20.0002 19.2652 20.0002 19C20.0002 18.7347 19.8949 18.4804 19.7073 18.2929C19.5198 18.1053 19.2654 18 19.0002 18C18.735 18 18.4806 18.1053 18.2931 18.2929C18.1056 18.4804 18.0002 18.7347 18.0002 19C18.0002 19.2652 18.1056 19.5195 18.2931 19.7071C18.4806 19.8946 18.735 20 19.0002 20ZM5.00021 20C5.26542 20 5.51978 19.8946 5.70731 19.7071C5.89485 19.5195 6.00021 19.2652 6.00021 19C6.00021 18.7347 5.89485 18.4804 5.70731 18.2929C5.51978 18.1053 5.26542 18 5.00021 18C4.73499 18 4.48064 18.1053 4.2931 18.2929C4.10556 18.4804 4.00021 18.7347 4.00021 19C4.00021 19.2652 4.10556 19.5195 4.2931 19.7071C4.48064 19.8946 4.73499 20 5.00021 20Z" fill="white"/>
</g>
</svg>
