<svg width="187" height="34" viewBox="0 0 187 34" fill="none" xmlns="http://www.w3.org/2000/svg">
<path d="M6.88477 34.001H0V6.80078H6.88477V34.001ZM34.9307 34H28.0459V0H34.9307V34ZM41.8154 34H34.9307L45.0557 0H51.9404L41.8154 34ZM58.8252 34H51.9404V0H58.8252V34ZM87.6748 6.7998H71.7871V34H64.9023V0H87.6748V6.7998ZM118.357 34H111.473L109.05 26.8008H92.7324L90.3096 34H83.4248L94.8662 0H106.917L118.357 34ZM128.48 14.001H144.68V20.8008H128.48V34H121.596V0H128.48V14.001ZM151.566 34H144.682V0H151.566V34ZM174.549 34H167.664V6.7998H155.214V0H174.549V34ZM95.0195 20.001H106.762L100.891 2.55371L95.0195 20.001ZM187 6.91406H180V0H187V6.91406ZM23.5908 6.7998H6.88477V0H23.5908V6.7998Z" fill="white"/>
</svg>
