<svg width="32" height="32" viewBox="0 0 32 32" fill="none" xmlns="http://www.w3.org/2000/svg">
<path d="M16.8055 18.7224H5.70687V14.3181H16.8055C17.4538 14.3181 17.9045 14.4314 18.1308 14.6293C18.357 14.8272 18.4971 15.1942 18.4971 15.7303V17.3118C18.4971 17.8767 18.357 18.2437 18.1308 18.4416C17.9045 18.6395 17.4538 18.7241 16.8055 18.7241V18.7224ZM17.5669 10.1658H1V29.0008H5.70687V22.873H14.3811L18.4971 29.0008H23.7679L19.2298 22.8442C20.9029 22.5956 21.6542 22.0814 22.2738 21.234C22.8933 20.3867 23.204 19.0319 23.204 17.2238V15.8115C23.204 14.7392 23.0909 13.8918 22.8933 13.2424C22.6958 12.5929 22.3582 12.0279 21.8787 11.5205C21.3722 11.0402 20.8083 10.7019 20.1313 10.4753C19.4544 10.2774 18.6085 10.1641 17.5669 10.1641V10.1658Z" fill="white"/>
<path d="M27.3836 10.1633C29.3808 10.1633 30.9997 8.5597 30.9997 6.58163C30.9997 4.60355 29.3808 3 27.3836 3C25.3866 3 23.7676 4.60355 23.7676 6.58163C23.7676 8.5597 25.3866 10.1633 27.3836 10.1633Z" fill="white"/>
</svg>
