<svg width="32" height="32" viewBox="0 0 32 32" fill="none" xmlns="http://www.w3.org/2000/svg">
<path d="M30 15.7233C30 15.5834 29.8863 15.4675 29.7463 15.4609C24.7231 15.2706 21.666 14.6299 19.5273 12.491C17.3842 10.3477 16.7457 7.28813 16.5554 2.25369C16.551 2.11372 16.4351 2 16.293 2H15.7069C15.567 2 15.4511 2.11372 15.4445 2.25369C15.2543 7.28594 14.6157 10.3477 12.4726 12.491C10.3318 14.632 7.27679 15.2706 2.25367 15.4609C2.11371 15.4653 2 15.5812 2 15.7233V16.3095C2 16.4494 2.11371 16.5653 2.25367 16.5719C7.27679 16.7622 10.3339 17.403 12.4726 19.5418C14.6113 21.6807 15.2499 24.7317 15.4423 29.7462C15.4467 29.8862 15.5626 30 15.7047 30H16.293C16.433 30 16.5489 29.8862 16.5554 29.7462C16.7479 24.7317 17.3864 21.6807 19.5251 19.5418C21.666 17.4008 24.7209 16.7622 29.7441 16.5719C29.8841 16.5675 29.9978 16.4516 29.9978 16.3095V15.7233H30Z" fill="white"/>
</svg>
