<svg width="22" height="21" viewBox="0 0 22 21" fill="none" xmlns="http://www.w3.org/2000/svg">
<g id="Group">
<path id="Vector" d="M15 6.00001H15.01M2.4 17H11C13.1217 17 15.1566 16.1572 16.6569 14.6569C18.1571 13.1566 19 11.1217 19 9.00001V6.00001C19.0023 5.14792 18.7323 4.31737 18.2296 3.6294C17.7269 2.94142 17.0175 2.43197 16.205 2.17527C15.3925 1.91857 14.5193 1.92804 13.7125 2.2023C12.9058 2.47657 12.2077 3.00129 11.72 3.70001L1 19" stroke="#4458FF" stroke-width="2" stroke-linecap="round" stroke-linejoin="round"/>
<g id="Vector_2">
<path d="M19 6L21 6.5L19 7M9 17V20V17ZM13 16.75V20V16.75ZM6 17C7.23312 16.9999 8.43627 16.6199 9.44573 15.9117C10.4552 15.2035 11.2219 14.2014 11.6416 13.0419C12.0612 11.8824 12.1134 10.6217 11.7911 9.43151C11.4687 8.24127 10.7874 7.17926 9.84 6.39" fill="white"/>
<path d="M19 6L21 6.5L19 7M9 17V20M13 16.75V20M6 17C7.23312 16.9999 8.43627 16.6199 9.44573 15.9117C10.4552 15.2035 11.2219 14.2014 11.6416 13.0419C12.0612 11.8824 12.1134 10.6217 11.7911 9.43151C11.4687 8.24127 10.7874 7.17926 9.84 6.39" stroke="#4458FF" stroke-width="2" stroke-linecap="round" stroke-linejoin="round"/>
</g>
</g>
</svg>
