<svg width="24" height="24" viewBox="0 0 24 24" fill="none" xmlns="http://www.w3.org/2000/svg">
<g id="Group">
<path id="Vector" d="M3.16101 4.46868C4.32108 3.3084 5.87701 2.62976 7.51661 2.56893C9.15621 2.50809 10.7582 3.06956 12.001 4.14068C13.2428 3.07135 14.8426 2.51051 16.4802 2.57044C18.1179 2.63037 19.6724 3.30665 20.8327 4.46388C21.993 5.62112 22.6733 7.1739 22.7375 8.81137C22.8017 10.4488 22.2451 12.0501 21.179 13.2947L13.414 21.0847C13.0573 21.4416 12.5788 21.6504 12.0745 21.6693C11.5703 21.6882 11.0775 21.5158 10.695 21.1867L10.585 21.0857L2.82101 13.2947C1.7555 12.0512 1.19859 10.4514 1.26163 8.81506C1.32466 7.17873 2.003 5.62649 3.16101 4.46868ZM4.57501 5.88268C3.75725 6.70066 3.28587 7.80212 3.25868 8.95845C3.23149 10.1148 3.6506 11.2372 4.42901 12.0927L4.57501 12.2467L12 19.6717L17.303 14.3677L13.768 10.8327L12.708 11.8927C12.4295 12.1713 12.0988 12.3924 11.7348 12.5433C11.3708 12.6941 10.9807 12.7718 10.5867 12.7719C9.791 12.7721 9.0278 12.4562 8.46501 11.8937C7.90222 11.3312 7.58595 10.5681 7.58576 9.77238C7.58557 8.97667 7.90149 8.21347 8.46401 7.65068L10.566 5.54768C9.72948 4.88005 8.68242 4.53237 7.6127 4.567C6.54297 4.60164 5.5206 5.01633 4.72901 5.73668L4.57501 5.88268ZM13.061 8.71068C13.2485 8.52321 13.5028 8.41789 13.768 8.41789C14.0332 8.41789 14.2875 8.52321 14.475 8.71068L18.717 12.9527L19.425 12.2467C20.2565 11.4158 20.7298 10.2926 20.7438 9.11724C20.7579 7.94188 20.3114 6.80769 19.5 5.95723C18.6886 5.10677 17.5767 4.60755 16.402 4.56633C15.2272 4.52511 14.083 4.94517 13.214 5.73668L13.061 5.88268L9.87901 9.06468C9.70568 9.23789 9.60199 9.46872 9.58761 9.71334C9.57323 9.95796 9.64917 10.1993 9.80101 10.3917L9.87901 10.4787C10.0522 10.652 10.2831 10.7557 10.5277 10.7701C10.7723 10.7845 11.0137 10.7085 11.206 10.5567L11.293 10.4787L13.061 8.71068Z" fill="#4458FF"/>
</g>
</svg>
