<svg width="448" height="418" viewBox="0 0 448 418" fill="none" xmlns="http://www.w3.org/2000/svg">
<g clip-path="url(#clip0_50_996)">
<path fill-rule="evenodd" clip-rule="evenodd" d="M81 1H185.267V132.874L81.1775 221.269L81 221.42V1ZM80 222.269V1V0H81H185.267H186.267V1V132.024L341.733 0H446.455H448L446.822 1L187.444 221.27H290.568V222.27H186.305L341.991 442.072H447.033L290.159 220.592L290.975 220.014L448.408 442.283L448.967 443.072H448H341.733H341.474L341.325 442.861L186.267 223.946V425.835V426.835H185.267H81H80V425.835V222.269ZM81.9688 222.269V222.27H185.08L185.267 222.534V425.835H81V222.269H81.5449H81.9688ZM185.267 134.186V220.804L184.707 220.014L183.891 220.592L184.371 221.269H82.7224L185.267 134.186ZM186.267 220.957L445.278 1H342.1L186.267 133.336V220.957Z" fill="white"/>
</g>
<defs>
<clipPath id="clip0_50_996">
<rect width="448" height="418" fill="white"/>
</clipPath>
</defs>
</svg>
