<svg width="24" height="24" viewBox="0 0 24 24" fill="none" xmlns="http://www.w3.org/2000/svg">
<g id="Group">
<path id="Vector" d="M13.0612 8.10999L14.4762 9.52499C15.1263 10.175 15.642 10.9467 15.9938 11.796C16.3457 12.6454 16.5267 13.5557 16.5267 14.475C16.5267 15.3943 16.3457 16.3046 15.9938 17.1539C15.642 18.0033 15.1263 18.775 14.4762 19.425L14.1222 19.778C12.8094 21.0908 11.0288 21.8283 9.17223 21.8283C7.31562 21.8283 5.53505 21.0908 4.22223 19.778C2.90941 18.4652 2.17188 16.6846 2.17188 14.828C2.17187 12.9714 2.90941 11.1908 4.22223 9.87799L5.63723 11.293C5.1696 11.7565 4.79814 12.3079 4.54416 12.9154C4.29018 13.5229 4.1587 14.1746 4.15726 14.833C4.15582 15.4915 4.28445 16.1437 4.53576 16.7523C4.78707 17.3609 5.15612 17.9139 5.62171 18.3795C6.08731 18.8451 6.64028 19.2141 7.24889 19.4655C7.8575 19.7168 8.50975 19.8454 9.1682 19.844C9.82665 19.8425 10.4783 19.711 11.0858 19.4571C11.6933 19.2031 12.2447 18.8316 12.7082 18.364L13.0622 18.01C13.9996 17.0724 14.5262 15.8008 14.5262 14.475C14.5262 13.1492 13.9996 11.8776 13.0622 10.94L11.6472 9.52499L13.0622 8.11099L13.0612 8.10999ZM19.7792 14.121L18.3652 12.707C18.8329 12.2434 19.2043 11.6921 19.4583 11.0846C19.7123 10.4771 19.8438 9.8254 19.8452 9.16695C19.8466 8.5085 19.718 7.85625 19.4667 7.24765C19.2154 6.63904 18.8463 6.08607 18.3808 5.62047C17.9152 5.15487 17.3622 4.78583 16.7536 4.53451C16.145 4.2832 15.4927 4.15457 14.8343 4.15602C14.1758 4.15746 13.5241 4.28894 12.9166 4.54292C12.3091 4.79689 11.7578 5.16836 11.2942 5.63599L10.9402 5.98999C10.0029 6.92763 9.4763 8.19917 9.4763 9.52499C9.4763 10.8508 10.0029 12.1223 10.9402 13.06L12.3552 14.475L10.9402 15.889L9.52623 14.475C8.87615 13.825 8.36047 13.0533 8.00864 12.2039C7.65681 11.3546 7.47573 10.4443 7.47573 9.52499C7.47573 8.60567 7.65681 7.69536 8.00864 6.84604C8.36047 5.99671 8.87615 5.22501 9.52623 4.57499L9.88023 4.22199C11.1931 2.90917 12.9736 2.17163 14.8302 2.17163C16.6868 2.17163 18.4674 2.90917 19.7802 4.22199C21.0931 5.53481 21.8306 7.31538 21.8306 9.17199C21.8306 11.0286 21.0931 12.8092 19.7802 14.122L19.7792 14.121Z" fill="#4458FF"/>
</g>
</svg>
