<svg width="370" height="427" viewBox="0 0 370 427" fill="none" xmlns="http://www.w3.org/2000/svg">
<path fill-rule="evenodd" clip-rule="evenodd" d="M105.267 1H1V221.42L1.17755 221.269L105.267 132.874V1ZM0 1V222.269V425.835V426.835H1H105.267H106.267V425.835V223.17L262.021 426.304L262.171 426.5H262.418H368H369.013L368.397 425.696L211.979 221.696L211.185 222.304L366.987 425.5H262.665L106.612 221.976L366.822 1L368 0H366.455H261.733L106.267 132.024V1V0H105.267H1H0V1ZM105.267 425.835V222.269H1.54486H1V425.835H105.267ZM365.278 1L106.267 220.957V133.336L262.1 1H365.278ZM105.267 221.269V134.186L2.72241 221.269H105.267Z" fill="white"/>
</svg>
