<svg width="24" height="24" viewBox="0 0 24 24" fill="none" xmlns="http://www.w3.org/2000/svg">
<g id="Group">
<path id="Vector" d="M9.98404 5.06026C10.3897 4.28768 10.9468 3.60469 11.622 3.05201C12.2973 2.49933 13.0769 2.08827 13.9145 1.84334C14.752 1.59841 15.6303 1.52462 16.4969 1.62638C17.3636 1.72814 18.2009 2.00335 18.9589 2.43562C19.7169 2.86789 20.3801 3.44836 20.909 4.14243C21.4379 4.83649 21.8216 5.62994 22.0373 6.47548C22.253 7.32101 22.2962 8.20131 22.1644 9.06391C22.0325 9.9265 21.7284 10.7537 21.27 11.4963C22.0722 12.2516 22.6289 13.2305 22.8681 14.306C23.1074 15.3815 23.0181 16.5041 22.6118 17.5282C22.2056 18.5524 21.5011 19.4309 20.5896 20.05C19.6782 20.6691 18.6018 21.0001 17.5 21.0003L9.00004 20.9993C7.90846 20.9984 6.8286 20.7742 5.82691 20.3404C4.82523 19.9066 3.92291 19.2724 3.17551 18.4769C2.4281 17.6813 1.85142 16.7412 1.48094 15.7144C1.11047 14.6876 0.954047 13.5959 1.0213 12.5063C1.08856 11.4168 1.37807 10.3526 1.87202 9.37919C2.36597 8.40577 3.05391 7.54372 3.89349 6.84612C4.73307 6.14851 5.70654 5.63011 6.75397 5.32281C7.80141 5.01551 8.90065 4.92582 9.98404 5.05926V5.06026ZM12.055 5.60426C13.0539 6.01829 13.9588 6.62987 14.7154 7.40229C15.472 8.17472 16.0648 9.09206 16.458 10.0993C17.5059 9.89842 18.5894 10.005 19.578 10.4063C20.0416 9.41702 20.1295 8.29292 19.8252 7.24367C19.521 6.19442 18.8455 5.29166 17.9247 4.70381C17.0038 4.11596 15.9006 3.88317 14.8208 4.04885C13.741 4.21453 12.7583 4.76738 12.056 5.60426H12.055ZM17.5 19.0003C18.0771 19.0002 18.6451 18.8574 19.1537 18.5847C19.6622 18.312 20.0954 17.9178 20.4147 17.4372C20.7341 16.9565 20.9296 16.4044 20.984 15.8299C21.0383 15.2555 20.9498 14.6765 20.7263 14.1445C20.5028 13.6125 20.1512 13.144 19.7028 12.7808C19.2545 12.4175 18.7233 12.1708 18.1565 12.0625C17.5897 11.9542 17.0049 11.9877 16.4542 12.16C15.9035 12.3323 15.404 12.6382 15 13.0503V13.0003C15 11.8136 14.6481 10.6535 13.9889 9.66684C13.3296 8.68014 12.3925 7.91111 11.2961 7.45698C10.1998 7.00286 8.99339 6.88404 7.8295 7.11555C6.66561 7.34706 5.59652 7.9185 4.7574 8.75762C3.91829 9.59673 3.34684 10.6658 3.11533 11.8297C2.88382 12.9936 3.00264 14.2 3.45677 15.2964C3.91089 16.3927 4.67993 17.3298 5.66662 17.9891C6.65332 18.6484 7.81335 19.0003 9.00004 19.0003H17.5Z" fill="#4458FF"/>
</g>
</svg>
