<svg width="24" height="25" viewBox="0 0 24 25" fill="none" xmlns="http://www.w3.org/2000/svg">
<g id="Group">
<path id="Vector" d="M7 7.125V3.125C7 2.85978 7.10536 2.60543 7.29289 2.41789C7.48043 2.23036 7.73478 2.125 8 2.125H21C21.2652 2.125 21.5196 2.23036 21.7071 2.41789C21.8946 2.60543 22 2.85978 22 3.125V16.125C22 16.3902 21.8946 16.6446 21.7071 16.8321C21.5196 17.0196 21.2652 17.125 21 17.125H17V21.118C17 21.674 16.551 22.125 15.993 22.125H3.007C2.87472 22.1251 2.74372 22.0992 2.62148 22.0486C2.49925 21.9981 2.38819 21.9239 2.29465 21.8303C2.20112 21.7368 2.12695 21.6258 2.07639 21.5035C2.02583 21.3813 1.99987 21.2503 2 21.118L2.003 8.132C2.003 7.576 2.452 7.125 3.01 7.125H7ZM9 7.125H15.993C16.549 7.125 17 7.574 17 8.132V15.125H20V4.125H9V7.125ZM15 9.125H4.003L4 20.125H15V9.125ZM8.503 18.125L4.967 14.589L6.381 13.175L8.503 15.297L12.745 11.054L14.159 12.468L8.503 18.125Z" fill="#4458FF"/>
</g>
</svg>
