<svg width="24" height="25" viewBox="0 0 24 25" fill="none" xmlns="http://www.w3.org/2000/svg">
<g id="Group">
<path id="Vector" d="M22 20.132C21.9982 20.3946 21.8931 20.646 21.7075 20.8318C21.5219 21.0176 21.2706 21.1229 21.008 21.125H2.992C2.72881 21.1247 2.4765 21.02 2.29049 20.8338C2.10448 20.6476 2 20.3952 2 20.132V19.125H20V7.425L12 14.625L2 5.625V4.125C2 3.85978 2.10536 3.60543 2.29289 3.41789C2.48043 3.23036 2.73478 3.125 3 3.125H21C21.2652 3.125 21.5196 3.23036 21.7071 3.41789C21.8946 3.60543 22 3.85978 22 4.125V20.132ZM4.434 5.125L12 11.935L19.566 5.125H4.434ZM0 15.125H8V17.125H0V15.125ZM0 10.125H5V12.125H0V10.125Z" fill="#4458FF"/>
</g>
</svg>
