<svg width="24" height="25" viewBox="0 0 24 25" fill="none" xmlns="http://www.w3.org/2000/svg">
<g id="Group">
<path id="Vector" d="M11 19.125V9.125H4V19.125H11ZM11 7.125V4.125C11 3.85978 11.1054 3.60543 11.2929 3.41789C11.4804 3.23036 11.7348 3.125 12 3.125H21C21.2652 3.125 21.5196 3.23036 21.7071 3.41789C21.8946 3.60543 22 3.85978 22 4.125V20.125C22 20.3902 21.8946 20.6446 21.7071 20.8321C21.5196 21.0196 21.2652 21.125 21 21.125H3C2.73478 21.125 2.48043 21.0196 2.29289 20.8321C2.10536 20.6446 2 20.3902 2 20.125V8.125C2 7.85978 2.10536 7.60543 2.29289 7.41789C2.48043 7.23036 2.73478 7.125 3 7.125H11ZM13 5.125V19.125H20V5.125H13ZM5 16.125H10V18.125H5V16.125ZM14 16.125H19V18.125H14V16.125ZM14 13.125H19V15.125H14V13.125ZM14 10.125H19V12.125H14V10.125ZM5 13.125H10V15.125H5V13.125Z" fill="#4458FF"/>
</g>
</svg>
