<svg width="24" height="25" viewBox="0 0 24 25" fill="none" xmlns="http://www.w3.org/2000/svg">
<g id="Group">
<path id="Vector" d="M9.9838 5.18526C10.3895 4.41268 10.9465 3.72969 11.6218 3.17701C12.2971 2.62433 13.0767 2.21327 13.9142 1.96834C14.7518 1.72341 15.63 1.64962 16.4967 1.75138C17.3633 1.85314 18.2006 2.12835 18.9586 2.56062C19.7167 2.99289 20.3799 3.57336 20.9088 4.26743C21.4376 4.96149 21.8214 5.75494 22.037 6.60048C22.2527 7.44601 22.2959 8.32631 22.1641 9.18891C22.0323 10.0515 21.7281 10.8787 21.2698 11.6213C22.0719 12.3766 22.6287 13.3555 22.8679 14.431C23.1071 15.5065 23.0178 16.6291 22.6116 17.6532C22.2053 18.6774 21.5008 19.5559 20.5894 20.175C19.678 20.7941 18.6016 21.1251 17.4998 21.1253L8.9998 21.1243C7.90822 21.1234 6.82835 20.8992 5.82667 20.4654C4.82498 20.0316 3.92267 19.3974 3.17526 18.6019C2.42786 17.8063 1.85117 16.8662 1.4807 15.8394C1.11022 14.8126 0.953803 13.7209 1.02106 12.6313C1.08832 11.5418 1.37783 10.4776 1.87178 9.50419C2.36573 8.53077 3.05366 7.66872 3.89325 6.97112C4.73283 6.27351 5.70629 5.75511 6.75373 5.44781C7.80116 5.14051 8.9004 5.05082 9.9838 5.18426V5.18526ZM12.0548 5.72926C13.0536 6.14329 13.9585 6.75487 14.7152 7.52729C15.4718 8.29972 16.0645 9.21706 16.4578 10.2243C17.5056 10.0234 18.5892 10.13 19.5778 10.5313C20.0414 9.54202 20.1292 8.41792 19.825 7.36867C19.5208 6.31942 18.8452 5.41666 17.9244 4.82881C17.0036 4.24096 15.9004 4.00817 14.8205 4.17385C13.7407 4.33953 12.758 4.89238 12.0558 5.72926H12.0548ZM17.4998 19.1253C18.0768 19.1252 18.6449 18.9824 19.1534 18.7097C19.662 18.437 20.0952 18.0428 20.4145 17.5622C20.7338 17.0815 20.9294 16.5294 20.9837 15.9549C21.0381 15.3805 20.9496 14.8015 20.726 14.2695C20.5025 13.7375 20.1509 13.269 19.7026 12.9058C19.2542 12.5425 18.723 12.2958 18.1562 12.1875C17.5894 12.0792 17.0047 12.1127 16.454 12.285C15.9033 12.4573 15.4037 12.7632 14.9998 13.1753V13.1253C14.9998 11.9386 14.6479 10.7785 13.9886 9.79184C13.3293 8.80514 12.3923 8.03611 11.2959 7.58198C10.1995 7.12786 8.99314 7.00904 7.82926 7.24055C6.66537 7.47206 5.59627 8.0435 4.75716 8.88262C3.91804 9.72173 3.3466 10.7908 3.11509 11.9547C2.88358 13.1186 3.0024 14.325 3.45652 15.4214C3.91065 16.5177 4.67968 17.4548 5.66638 18.1141C6.65307 18.7734 7.81311 19.1253 8.9998 19.1253H17.4998Z" fill="#4458FF"/>
</g>
</svg>
