<svg width="25" height="25" viewBox="0 0 25 25" fill="none" xmlns="http://www.w3.org/2000/svg">
<g id="Group">
<path id="Vector" d="M7.40039 6.375V3.375C7.40039 3.10978 7.50575 2.85543 7.69328 2.66789C7.88082 2.48036 8.13517 2.375 8.40039 2.375H20.4004C20.6656 2.375 20.92 2.48036 21.1075 2.66789C21.295 2.85543 21.4004 3.10978 21.4004 3.375V17.375C21.4004 17.6402 21.295 17.8946 21.1075 18.0821C20.92 18.2696 20.6656 18.375 20.4004 18.375H17.4004V21.375C17.4004 21.927 16.9504 22.375 16.3934 22.375H4.40739C4.27552 22.3758 4.14479 22.3505 4.02271 22.3006C3.90064 22.2507 3.78962 22.1772 3.69605 22.0843C3.60247 21.9914 3.52818 21.8809 3.47744 21.7591C3.42671 21.6374 3.40052 21.5069 3.40039 21.375L3.40339 7.375C3.40339 6.823 3.85339 6.375 4.41039 6.375H7.40039ZM5.40339 8.375L5.40039 20.375H15.4004V8.375H5.40339ZM9.40039 6.375H17.4004V16.375H19.4004V4.375H9.40039V6.375Z" fill="#4458FF"/>
</g>
</svg>
