<svg width="24" height="25" viewBox="0 0 24 25" fill="none" xmlns="http://www.w3.org/2000/svg">
<g id="Group">
<path id="Vector" d="M4.40601 14.898L7.80801 11.496L10.636 14.325L13.793 11.168L12 9.375H17V14.375L15.207 12.582L10.636 17.153L7.80801 14.325L5.33301 16.799C6.45642 18.4899 8.18063 19.6904 10.1562 20.1573C12.1318 20.6243 14.2111 20.3227 15.9726 19.3137C17.7342 18.3047 19.0462 16.6638 19.6429 14.7234C20.2397 12.7831 20.0764 10.6884 19.1863 8.86393C18.2961 7.03946 16.7456 5.62163 14.8491 4.89774C12.9525 4.17386 10.8516 4.19807 8.97219 4.96547C7.09279 5.73287 5.57541 7.18606 4.72754 9.03056C3.87967 10.8751 3.76473 12.9729 4.40601 14.899V14.898ZM2.86801 16.456L2.85801 16.446L2.86201 16.442C2.29194 15.162 1.99821 13.7762 2.00001 12.375C2.00001 6.852 6.47701 2.375 12 2.375C17.523 2.375 22 6.852 22 12.375C22 17.898 17.523 22.375 12 22.375C7.93001 22.375 4.43001 19.945 2.86801 16.456Z" fill="#4458FF"/>
</g>
</svg>
