<svg width="24" height="24" viewBox="0 0 24 24" fill="none" xmlns="http://www.w3.org/2000/svg">
<g id="Group">
<path id="Vector" d="M10.7573 11.8275L18.6063 3.97852L20.0203 5.39252L18.6063 6.80752L21.0803 9.28152L19.6663 10.6965L17.1913 8.22152L15.7773 9.63552L17.8983 11.7565L16.4843 13.1715L14.3633 11.0495L12.1713 13.2415C12.8518 14.2755 13.1247 15.5251 12.9372 16.7486C12.7498 17.9722 12.1154 19.0828 11.1566 19.8657C10.1978 20.6485 8.98279 21.0481 7.74648 20.9872C6.51017 20.9262 5.34039 20.409 4.46331 19.5355C3.58433 18.6598 3.06233 17.4886 2.99876 16.2495C2.93519 15.0104 3.33458 13.792 4.11932 12.8309C4.90406 11.8699 6.01808 11.235 7.24487 11.0495C8.47166 10.8641 9.72358 11.1414 10.7573 11.8275ZM10.1203 18.1205C10.4116 17.845 10.6447 17.5138 10.8059 17.1466C10.967 16.7795 11.0529 16.3837 11.0585 15.9827C11.0641 15.5818 10.9892 15.1838 10.8383 14.8123C10.6875 14.4408 10.4637 14.1032 10.1801 13.8197C9.89658 13.5362 9.55907 13.3123 9.18755 13.1615C8.81603 13.0106 8.41803 12.9357 8.01708 12.9413C7.61613 12.9469 7.22037 13.0328 6.85319 13.1939C6.486 13.3551 6.15485 13.5882 5.87931 13.8795C5.33283 14.4453 5.03045 15.2031 5.03728 15.9897C5.04412 16.7763 5.35963 17.5287 5.91585 18.085C6.47208 18.6412 7.22451 18.9567 8.0111 18.9635C8.79769 18.9704 9.5555 18.668 10.1213 18.1215L10.1203 18.1205Z" fill="#4458FF"/>
</g>
</svg>
