<svg width="32" height="32" viewBox="0 0 32 32" fill="none" xmlns="http://www.w3.org/2000/svg">
<path d="M20 24C20 23.4477 20.4477 23 21 23C21.5523 23 22 23.4477 22 24C22 24.5523 21.5523 25 21 25C20.4477 25 20 24.5523 20 24Z" stroke="#23242C" stroke-width="2" stroke-linecap="round" stroke-linejoin="round"/>
<path d="M11 24C11 23.4477 11.4477 23 12 23C12.5523 23 13 23.4477 13 24C13 24.5523 12.5523 25 12 25C11.4477 25 11 24.5523 11 24Z" stroke="#23242C" stroke-width="2" stroke-linecap="round" stroke-linejoin="round"/>
<path d="M6 7L8.5 7.00004L9.07692 10M9.07692 10L11 20H22L24 10H9.07692Z" stroke="#23242C" stroke-width="2" stroke-linecap="square"/>
</svg>
