<svg width="32" height="32" viewBox="0 0 32 32" fill="none" xmlns="http://www.w3.org/2000/svg">
<path d="M16 24L15.5134 24.8736L16 25.1446L16.4866 24.8736L16 24ZM16 11.1622L15.0797 11.5533C15.2365 11.9225 15.5989 12.1622 16 12.1622C16.4011 12.1622 16.7635 11.9225 16.9203 11.5533L16 11.1622ZM6 12.9723C6 16.4457 8.56031 19.4617 10.8347 21.4884C12.0037 22.5302 13.1681 23.3728 14.0381 23.9542C14.474 24.2456 14.8385 24.473 15.0958 24.6286C15.2246 24.7064 15.3267 24.7664 15.3977 24.8076C15.4332 24.8281 15.461 24.844 15.4805 24.8551C15.4902 24.8606 15.4979 24.8649 15.5034 24.868C15.5061 24.8696 15.5084 24.8708 15.51 24.8717C15.5109 24.8722 15.5116 24.8726 15.5121 24.8729C15.5124 24.8731 15.5127 24.8733 15.5129 24.8733C15.5132 24.8735 15.5134 24.8736 16 24C16.4866 23.1264 16.4868 23.1265 16.4869 23.1265C16.4869 23.1265 16.487 23.1266 16.487 23.1266C16.4871 23.1266 16.4869 23.1266 16.4867 23.1264C16.4862 23.1261 16.4851 23.1256 16.4836 23.1247C16.4804 23.1229 16.4752 23.12 16.4679 23.1158C16.4533 23.1075 16.4305 23.0945 16.4001 23.0769C16.3393 23.0417 16.2481 22.9881 16.1307 22.9172C15.8959 22.7751 15.5572 22.5639 15.1494 22.2914C14.3319 21.745 13.2463 20.9585 12.1653 19.9953C9.93969 18.012 8 15.5141 8 12.9723H6ZM16.9203 10.7711C15.7391 7.99154 13.0468 6.70458 10.607 7.05704C9.38263 7.23392 8.21629 7.82554 7.35895 8.84728C6.49888 9.87228 6 11.2691 6 12.9723H8C8 11.668 8.37612 10.7465 8.89105 10.1328C9.40871 9.51592 10.1174 9.14854 10.893 9.03649C12.4532 8.8111 14.2609 9.62663 15.0797 11.5533L16.9203 10.7711ZM24 12.9723C24 15.5141 22.0603 18.012 19.8347 19.9953C18.7537 20.9585 17.6681 21.745 16.8506 22.2914C16.4428 22.5639 16.1041 22.7751 15.8693 22.9172C15.7519 22.9881 15.6607 23.0417 15.5999 23.0769C15.5695 23.0945 15.5467 23.1075 15.5321 23.1158C15.5248 23.12 15.5196 23.1229 15.5164 23.1247C15.5149 23.1256 15.5138 23.1261 15.5133 23.1264C15.5131 23.1266 15.5129 23.1266 15.513 23.1266C15.513 23.1266 15.5131 23.1265 15.5131 23.1265C15.5132 23.1265 15.5134 23.1264 16 24C16.4866 24.8736 16.4868 24.8735 16.4871 24.8733C16.4873 24.8733 16.4876 24.8731 16.4879 24.8729C16.4884 24.8726 16.4891 24.8722 16.49 24.8717C16.4916 24.8708 16.4939 24.8696 16.4966 24.868C16.5021 24.8649 16.5098 24.8606 16.5195 24.8551C16.539 24.844 16.5668 24.8281 16.6023 24.8076C16.6733 24.7664 16.7754 24.7064 16.9042 24.6286C17.1615 24.473 17.526 24.2456 17.9619 23.9542C18.8319 23.3728 19.9963 22.5302 21.1653 21.4884C23.4397 19.4617 26 16.4457 26 12.9723H24ZM16.9203 11.5533C17.7391 9.62663 19.5468 8.8111 21.107 9.03649C21.8826 9.14854 22.5913 9.51592 23.109 10.1328C23.6239 10.7465 24 11.668 24 12.9723H26C26 11.2691 25.5011 9.87228 24.641 8.84728C23.7837 7.82554 22.6174 7.23392 21.393 7.05704C18.9532 6.70458 16.2609 7.99154 15.0797 10.7711L16.9203 11.5533Z" fill="#23242C"/>
</svg>
