<svg width="187" height="34" viewBox="0 0 187 34" fill="none" xmlns="http://www.w3.org/2000/svg">
<path d="M6.88477 34H0V6.7998H6.88477V34ZM34.9316 33.9932L45.0547 0H51.9395L41.8145 34H28.0469V0H34.9316V33.9932ZM58.8262 34H51.9414V0H58.8262V34ZM87.6748 6.7998H71.7871V34H64.9023V0H87.6748V6.7998ZM118.357 34H111.473L109.05 26.8008H92.7334L90.3105 34H83.4258L94.8662 0H106.917L118.357 34ZM128.48 14.002H144.68V20.8018H128.48V34H121.596V0H128.48V14.002ZM151.566 34H144.682V0H151.566V34ZM174.549 34H167.664V6.7998H155.213V0H174.549V34ZM95.0205 20.001H106.763L100.892 2.55371L95.0205 20.001ZM187 6.91406H180V0H187V6.91406ZM23.5908 6.7998H6.88477V0H23.5908V6.7998Z" fill="#0064FA"/>
</svg>
