<svg width="187" height="36" viewBox="0 0 187 36" fill="none" xmlns="http://www.w3.org/2000/svg">
<path fill-rule="evenodd" clip-rule="evenodd" d="M34.9319 0.788208H28.0471V35.2118H34.9319H41.8166L51.9395 0.79385V35.2118H58.8242V0.788208H51.9412H51.9395H45.0564L34.9319 35.2118V0.788208ZM6.88438 7.67259H0V35.2115H6.88472V7.67293H23.59V0.788208H6.88438V7.67259ZM94.8665 0.788208H100.032H101.751H106.917L118.358 35.2118H111.473L109.05 27.9229H92.7329L90.3104 35.2118H83.4257L94.8665 0.788208ZM100.892 3.37458L106.762 21.0382H95.0211L100.892 3.37458ZM64.902 0.788208H71.7795H71.7867H87.6751V7.67293H71.7867V35.2118H64.902V0.788208ZM128.481 0.788208H121.596V35.2118H128.481V21.8483H144.68V14.9635H128.481V0.788208ZM144.682 0.788208H151.567V35.2118H144.682V0.788208ZM174.549 0.788208H167.666H167.665H155.212V7.67293H167.665V35.2118H174.549V0.788208ZM180 0.788208H187V7.78827H180V0.788208Z" fill="#4458FF"/>
</svg>
