<svg width="20" height="20" viewBox="0 0 20 20" fill="none" xmlns="http://www.w3.org/2000/svg">
<g id="Custom icon / 24x24">
<g id="Vector">
<path fill-rule="evenodd" clip-rule="evenodd" d="M8.33366 3.33366C5.57224 3.33366 3.33366 5.57224 3.33366 8.33366C3.33366 11.0951 5.57224 13.3337 8.33366 13.3337C11.0951 13.3337 13.3337 11.0951 13.3337 8.33366C13.3337 5.57224 11.0951 3.33366 8.33366 3.33366ZM1.66699 8.33366C1.66699 4.65176 4.65176 1.66699 8.33366 1.66699C12.0156 1.66699 15.0003 4.65176 15.0003 8.33366C15.0003 12.0156 12.0156 15.0003 8.33366 15.0003C4.65176 15.0003 1.66699 12.0156 1.66699 8.33366Z" fill="#A3A7B1"/>
<path fill-rule="evenodd" clip-rule="evenodd" d="M11.9111 11.9111C12.2365 11.5856 12.7641 11.5856 13.0896 11.9111L18.6788 17.5003L17.5003 18.6788L11.9111 13.0896C11.5856 12.7641 11.5856 12.2365 11.9111 11.9111Z" fill="#A3A7B1"/>
</g>
</g>
</svg>
