<svg width="32" height="32" viewBox="0 0 32 32" fill="none" xmlns="http://www.w3.org/2000/svg">
<path d="M4 24L24 24" stroke="#23242C" stroke-width="2"/>
<path d="M4 16.5L12 16.5" stroke="#23242C" stroke-width="2"/>
<path d="M4 9L12 9" stroke="#23242C" stroke-width="2"/>
<path d="M23.1393 15.0967L26.5055 18.5M24.5334 11.7444C24.5334 13.0026 24.0312 14.2094 23.1373 15.0991C22.2433 15.9889 21.0309 16.4887 19.7667 16.4887C18.5025 16.4887 17.2901 15.9889 16.3961 15.0991C15.5022 14.2094 15 13.0026 15 11.7444C15 10.4861 15.5022 9.27933 16.3961 8.38959C17.2901 7.49985 18.5025 7 19.7667 7C21.0309 7 22.2433 7.49985 23.1373 8.38959C24.0312 9.27933 24.5334 10.4861 24.5334 11.7444Z" stroke="#23242C" stroke-width="2" stroke-linecap="square"/>
</svg>
