<svg width="24" height="24" viewBox="0 0 24 24" fill="none" xmlns="http://www.w3.org/2000/svg">
<path d="M21.9428 16.9552V19.9552C21.9438 20.2351 21.8868 20.5051 21.7748 20.7651C21.6638 21.0151 21.4998 21.2451 21.2948 21.4352C21.0898 21.6251 20.8478 21.7651 20.5838 21.8551C20.3198 21.9452 20.0398 21.9851 19.7628 21.9552C16.6858 21.6251 13.7298 20.5652 11.1328 18.8851C8.71679 17.3452 6.66781 15.3052 5.1328 12.8851C3.4428 10.2751 2.3908 7.30518 2.0628 4.21521C2.0378 3.93518 2.07079 3.65515 2.15881 3.39514C2.2478 3.13513 2.3908 2.89514 2.57781 2.68518C2.76479 2.48511 2.99279 2.31519 3.24679 2.2052C3.50082 2.09521 3.7748 2.03516 4.05279 2.03516H7.05279C7.5378 2.03516 8.00881 2.2052 8.37679 2.51514C8.7448 2.83521 8.98479 3.27515 9.05279 3.75513C9.1798 4.71521 9.41381 5.65515 9.7528 6.56519C9.8868 6.92517 9.9168 7.31519 9.83681 7.68518C9.7568 8.05518 9.5718 8.40515 9.30279 8.67517L8.0328 9.94519C9.4558 12.4452 11.5288 14.5251 14.0328 15.9452L15.3028 14.6752C15.5748 14.4052 15.9178 14.2251 16.2918 14.1451C16.6658 14.0652 17.0548 14.0952 17.4128 14.2251C18.3198 14.5652 19.2628 14.7952 20.2228 14.9252C20.7088 14.9951 21.1518 15.2351 21.4688 15.6151C21.7868 15.9851 21.9548 16.4652 21.9428 16.9552Z" stroke="#0064FA" stroke-width="1.5" stroke-linecap="round" stroke-linejoin="round"/>
</svg>
