<svg width="201" height="24" viewBox="0 0 201 24" fill="none" xmlns="http://www.w3.org/2000/svg">
<path d="M6.62862 20.1891L7.01476 19.5462L6.74396 19.3835L6.4384 19.4637L6.62862 20.1891ZM6.98956 20.4059L6.60341 21.0489L6.60776 21.0515L6.98956 20.4059ZM12.0429 21.7865L12.0405 22.5365H12.0429V21.7865ZM3.63226 17.1542L4.26859 16.7572L4.26591 16.7529L3.63226 17.1542ZM3.86718 17.5307L4.59033 17.7296L4.67751 17.4126L4.5035 17.1337L3.86718 17.5307ZM2.86453 21.176L2.14138 20.9771L1.79638 22.2314L3.05474 21.9015L2.86453 21.176ZM6.24247 20.8321L6.60342 21.0489L7.37571 19.763L7.01476 19.5462L6.24247 20.8321ZM6.60776 21.0515C8.24893 22.0221 10.1277 22.5304 12.0405 22.5365L12.0453 21.0365C10.3943 21.0312 8.7783 20.5925 7.37136 19.7604L6.60776 21.0515ZM12.0429 22.5365H12.0486V21.0365H12.0429V22.5365ZM12.0486 22.5365C17.9309 22.5365 22.7275 17.7714 22.7275 11.9001H21.2275C21.2275 16.9364 17.1091 21.0365 12.0486 21.0365V22.5365ZM22.7275 11.9001C22.7275 9.05904 21.6165 6.38674 19.6027 4.37544L18.5427 5.43676C20.2758 7.16776 21.2275 9.45868 21.2275 11.9001H22.7275ZM19.6027 4.37544C17.5875 2.36276 14.8984 1.25809 12.0486 1.25809V2.75809C14.504 2.75809 16.8109 3.70715 18.5427 5.43676L19.6027 4.37544ZM12.0486 1.25809C6.16075 1.25809 1.36401 6.02287 1.36401 11.8945H2.86401C2.86401 6.85848 6.98198 2.75809 12.0486 2.75809V1.25809ZM1.36401 11.8945C1.36401 13.9002 1.92469 15.8594 2.99861 17.5554L4.26591 16.7529C3.34593 15.3001 2.86401 13.6197 2.86401 11.8945H1.36401ZM2.99595 17.5512L3.23087 17.9277L4.5035 17.1337L4.26857 16.7572L2.99595 17.5512ZM3.14404 17.3318L2.14138 20.9771L3.58767 21.3749L4.59033 17.7296L3.14404 17.3318ZM3.05474 21.9015L6.81883 20.9146L6.4384 19.4637L2.67432 20.4506L3.05474 21.9015Z" fill="#4458FF"/>
<path d="M17.4973 14.3763L17.0114 15.3522L17.0111 15.3529L16.815 15.7467L17.8983 16.139L16.8113 15.7543L16.4051 16.5701L15.7366 16.3498C15.401 16.7395 14.7974 17.2492 13.8867 17.3655C14.9346 17.6671 15.3642 17.6151 15.7245 17.5715C15.7778 17.565 15.8296 17.5588 15.8817 17.5538C16.4317 17.5025 17.6464 16.835 17.8984 16.1391C18.1447 15.4431 18.1447 14.8498 18.0703 14.7243C18.0105 14.6235 17.8696 14.5559 17.6623 14.4565C17.6113 14.432 17.5562 14.4056 17.4973 14.3763ZM17.4973 14.3763L17.0112 15.3523L17.0109 15.353L16.8148 15.7467M17.4973 14.3763C17.1994 14.228 15.7327 13.5092 15.4578 13.4065M16.8148 15.7467L13.8398 14.7212C13.8406 14.7203 13.8413 14.7195 13.842 14.7186C14.014 14.5189 14.5868 13.8514 14.7874 13.5548C14.9822 13.2582 15.1827 13.3038 15.4578 13.4065M16.8148 15.7467L16.5247 15.6416L16.5239 15.6413L16.3766 15.588M16.8148 15.7467L16.3766 15.588M15.4578 13.4065L15.2814 13.8792L15.2785 13.8869L14.8499 15.0354L13.8487 14.7244C14.307 14.8885 14.6285 14.982 14.8497 15.0353L15.2784 13.8869L15.2813 13.8791L15.4578 13.4065ZM16.3766 15.588C16.5588 15.3633 16.739 15.1317 16.8583 14.9553L16.8678 14.9413L16.8771 14.9271C16.8714 14.9359 16.8651 14.9452 16.8582 14.9552C16.7809 15.0676 16.6309 15.2546 16.3825 15.4309C16.3313 15.4672 16.2785 15.5012 16.2244 15.5328L15.6745 15.3337L15.6722 15.3329L15.6518 15.3255C15.6324 15.2359 15.6236 15.1653 15.6194 15.1215C15.6289 15.1025 15.6383 15.0851 15.6473 15.0691C15.648 15.0678 15.6487 15.0665 15.6495 15.0653C15.6695 15.0299 15.6877 15.0019 15.7018 14.9813C15.7392 14.9269 15.7656 14.8999 15.7682 14.8973C15.7717 14.8937 15.7632 14.9027 15.7395 14.9215C15.7164 14.9399 15.6855 14.9623 15.6476 14.9867C15.6363 14.994 15.625 15.0011 15.6138 15.0078C15.6139 15.005 15.614 15.0028 15.614 15.0011M16.3766 15.588L15.6142 14.9972C15.6143 14.9971 15.6142 14.9984 15.614 15.0011M15.614 15.0011C15.614 15.002 15.6139 15.0032 15.6137 15.0046C15.6136 15.0057 15.6135 15.0069 15.6134 15.0081M15.614 15.0011L15.6134 15.0081M15.6134 15.0081C15.563 15.0387 15.5149 15.0638 15.4757 15.0821C15.3167 15.0994 15.2832 15.1072 15.2499 15.1065C15.2295 15.1061 15.2092 15.1026 15.1604 15.0961L15.6134 15.0081ZM16.8111 15.7542L16.4048 16.5699L15.969 16.0784C16.0238 16.0138 16.0847 15.9415 16.1489 15.8646C16.1494 15.864 16.1499 15.8634 16.1504 15.8628C16.2207 15.7785 16.2948 15.6887 16.3687 15.5977L16.512 15.6484L16.5128 15.6486L16.8111 15.7542ZM15.6563 15.3455L15.674 15.3518L15.6763 15.3526L16.2097 15.5414L15.6563 15.3455Z" fill="white" stroke="#4458FF" stroke-width="5"/>
<path d="M33.6 6.8H35.104V11.584H41.056V6.8H42.56V18H41.056V12.896H35.104V18H33.6V6.8ZM47.8523 18.16C47.3829 18.16 46.9669 18.096 46.6043 17.968C46.2523 17.8293 45.9536 17.6427 45.7083 17.408C45.4629 17.1733 45.2763 16.896 45.1483 16.576C45.0203 16.256 44.9563 15.904 44.9563 15.52C44.9563 14.6773 45.2016 14.0693 45.6923 13.696C46.1936 13.3227 46.9083 13.136 47.8363 13.136H50.5883V12.56C50.5883 11.8347 50.4229 11.3333 50.0923 11.056C49.7723 10.7787 49.2869 10.64 48.6363 10.64C48.0283 10.64 47.5856 10.7573 47.3083 10.992C47.0309 11.216 46.8763 11.472 46.8443 11.76H45.4363C45.4576 11.4187 45.5483 11.104 45.7083 10.816C45.8789 10.5173 46.1029 10.2613 46.3803 10.048C46.6683 9.83467 47.0096 9.66933 47.4043 9.552C47.7989 9.424 48.2363 9.36 48.7163 9.36C49.7189 9.36 50.5136 9.6 51.1003 10.08C51.6976 10.5493 51.9963 11.3227 51.9963 12.4V15.84C51.9963 16.288 51.9963 16.6827 51.9963 17.024C52.0069 17.3547 52.0336 17.68 52.0763 18H50.8443C50.8123 17.7547 50.7909 17.5253 50.7803 17.312C50.7696 17.088 50.7643 16.8373 50.7643 16.56C50.5403 17.008 50.1776 17.3867 49.6763 17.696C49.1749 18.0053 48.5669 18.16 47.8523 18.16ZM48.1562 16.88C48.4869 16.88 48.7963 16.8373 49.0843 16.752C49.3829 16.656 49.6443 16.5227 49.8683 16.352C50.0923 16.1707 50.2683 15.952 50.3963 15.696C50.5243 15.44 50.5883 15.1413 50.5883 14.8V14.224H48.0763C47.5536 14.224 47.1429 14.3307 46.8443 14.544C46.5456 14.7467 46.3963 15.072 46.3963 15.52C46.3963 15.9147 46.5349 16.24 46.8123 16.496C47.1003 16.752 47.5483 16.88 48.1562 16.88ZM54.4831 9.52H61.5231V18H60.1151V10.768H55.8911V18H54.4831V9.52ZM64.0769 9.52H65.4849V15.92L69.8689 9.52H71.2769V18H69.8689V11.6L65.4849 18H64.0769V9.52ZM77.1225 18.16C76.5785 18.16 76.0718 18.0747 75.6025 17.904C75.1332 17.7227 74.7278 17.456 74.3865 17.104C74.0452 16.7413 73.7732 16.288 73.5705 15.744C73.3785 15.2 73.2825 14.5653 73.2825 13.84V13.52C73.2825 12.8373 73.3892 12.2347 73.6025 11.712C73.8158 11.1893 74.0985 10.7573 74.4505 10.416C74.8025 10.064 75.2078 9.80267 75.6665 9.632C76.1358 9.45067 76.6212 9.36 77.1225 9.36C77.6238 9.36 78.0718 9.42933 78.4665 9.568C78.8718 9.70667 79.2185 9.89867 79.5065 10.144C79.8052 10.3893 80.0452 10.6773 80.2265 11.008C80.4185 11.3387 80.5572 11.696 80.6425 12.08H79.2025C79.1172 11.8773 79.0158 11.6907 78.8985 11.52C78.7918 11.3387 78.6532 11.184 78.4825 11.056C78.3225 10.928 78.1305 10.8267 77.9065 10.752C77.6825 10.6773 77.4212 10.64 77.1225 10.64C76.8132 10.64 76.5145 10.6987 76.2265 10.816C75.9385 10.9227 75.6825 11.0933 75.4585 11.328C75.2345 11.552 75.0532 11.8453 74.9145 12.208C74.7865 12.5707 74.7225 13.008 74.7225 13.52V13.84C74.7225 14.384 74.7865 14.8533 74.9145 15.248C75.0532 15.632 75.2345 15.9467 75.4585 16.192C75.6825 16.4267 75.9385 16.6027 76.2265 16.72C76.5145 16.8267 76.8132 16.88 77.1225 16.88C77.6452 16.88 78.0825 16.752 78.4345 16.496C78.7972 16.24 79.0532 15.888 79.2025 15.44H80.6425C80.4398 16.2827 80.0238 16.9493 79.3945 17.44C78.7652 17.92 78.0078 18.16 77.1225 18.16ZM84.9773 18.16C84.5079 18.16 84.0919 18.096 83.7293 17.968C83.3773 17.8293 83.0786 17.6427 82.8333 17.408C82.5879 17.1733 82.4013 16.896 82.2733 16.576C82.1453 16.256 82.0813 15.904 82.0813 15.52C82.0813 14.6773 82.3266 14.0693 82.8173 13.696C83.3186 13.3227 84.0333 13.136 84.9613 13.136H87.7133V12.56C87.7133 11.8347 87.5479 11.3333 87.2173 11.056C86.8973 10.7787 86.4119 10.64 85.7613 10.64C85.1533 10.64 84.7106 10.7573 84.4333 10.992C84.1559 11.216 84.0013 11.472 83.9693 11.76H82.5613C82.5826 11.4187 82.6733 11.104 82.8333 10.816C83.0039 10.5173 83.2279 10.2613 83.5053 10.048C83.7933 9.83467 84.1346 9.66933 84.5293 9.552C84.9239 9.424 85.3613 9.36 85.8413 9.36C86.8439 9.36 87.6386 9.6 88.2253 10.08C88.8226 10.5493 89.1213 11.3227 89.1213 12.4V15.84C89.1213 16.288 89.1213 16.6827 89.1213 17.024C89.1319 17.3547 89.1586 17.68 89.2013 18H87.9693C87.9373 17.7547 87.9159 17.5253 87.9053 17.312C87.8946 17.088 87.8893 16.8373 87.8893 16.56C87.6653 17.008 87.3026 17.3867 86.8013 17.696C86.2999 18.0053 85.6919 18.16 84.9773 18.16ZM85.2812 16.88C85.6119 16.88 85.9213 16.8373 86.2093 16.752C86.5079 16.656 86.7693 16.5227 86.9933 16.352C87.2173 16.1707 87.3933 15.952 87.5213 15.696C87.6493 15.44 87.7133 15.1413 87.7133 14.8V14.224H85.2013C84.6786 14.224 84.2679 14.3307 83.9693 14.544C83.6706 14.7467 83.5213 15.072 83.5213 15.52C83.5213 15.9147 83.6599 16.24 83.9373 16.496C84.2253 16.752 84.6733 16.88 85.2812 16.88ZM93.3879 10.768H90.4919V9.52H97.6919V10.768H94.7959V18H93.3879V10.768ZM99.2956 9.52H100.704V12.72H102.736C103.802 12.72 104.586 12.9547 105.088 13.424C105.6 13.8933 105.856 14.544 105.856 15.376C105.856 16.1867 105.6 16.8267 105.088 17.296C104.586 17.7653 103.802 18 102.736 18H99.2956V9.52ZM102.656 16.752C103.317 16.752 103.781 16.6347 104.048 16.4C104.314 16.1653 104.448 15.8187 104.448 15.36C104.448 14.9013 104.314 14.5547 104.048 14.32C103.781 14.0853 103.317 13.968 102.656 13.968H100.704V16.752H102.656ZM111.702 9.52H115.382C116.427 9.52 117.195 9.73867 117.686 10.176C118.177 10.6027 118.422 11.1573 118.422 11.84C118.422 12.0213 118.39 12.208 118.326 12.4C118.262 12.5813 118.171 12.752 118.054 12.912C117.947 13.072 117.814 13.2107 117.654 13.328C117.505 13.4453 117.334 13.536 117.142 13.6C117.665 13.728 118.059 13.9733 118.326 14.336C118.603 14.688 118.742 15.104 118.742 15.584C118.742 16.32 118.497 16.9067 118.006 17.344C117.515 17.7813 116.747 18 115.702 18H111.702V9.52ZM115.702 16.752C116.299 16.752 116.721 16.6453 116.966 16.432C117.211 16.2187 117.334 15.9147 117.334 15.52C117.334 15.1147 117.211 14.8053 116.966 14.592C116.721 14.368 116.299 14.256 115.702 14.256H113.11V16.752H115.702ZM115.382 13.104C115.99 13.104 116.411 12.9973 116.646 12.784C116.891 12.5707 117.014 12.2773 117.014 11.904C117.014 11.552 116.891 11.2747 116.646 11.072C116.411 10.8693 115.99 10.768 115.382 10.768H113.11V13.104H115.382ZM123.949 6.8H125.549L127.853 15.6L130.477 6.8H131.821L134.493 15.6L136.813 6.8H138.349L135.341 18H133.837L131.117 9.2L128.461 18H126.957L123.949 6.8ZM140.108 6.8H141.516V11.04C141.623 10.816 141.761 10.6027 141.932 10.4C142.103 10.1973 142.305 10.0213 142.54 9.872C142.775 9.712 143.041 9.58933 143.34 9.504C143.639 9.408 143.964 9.36 144.316 9.36C145.383 9.36 146.172 9.648 146.684 10.224C147.207 10.7893 147.468 11.6213 147.468 12.72V18H146.06V13.04C146.06 12.2507 145.895 11.6533 145.564 11.248C145.233 10.8427 144.679 10.64 143.9 10.64C143.484 10.64 143.121 10.7093 142.812 10.848C142.513 10.9867 142.268 11.168 142.076 11.392C141.884 11.616 141.74 11.872 141.644 12.16C141.559 12.448 141.516 12.7413 141.516 13.04V18H140.108V6.8ZM152.368 18.16C151.899 18.16 151.483 18.096 151.12 17.968C150.768 17.8293 150.469 17.6427 150.224 17.408C149.979 17.1733 149.792 16.896 149.664 16.576C149.536 16.256 149.472 15.904 149.472 15.52C149.472 14.6773 149.717 14.0693 150.208 13.696C150.709 13.3227 151.424 13.136 152.352 13.136H155.104V12.56C155.104 11.8347 154.939 11.3333 154.608 11.056C154.288 10.7787 153.803 10.64 153.152 10.64C152.544 10.64 152.101 10.7573 151.824 10.992C151.547 11.216 151.392 11.472 151.36 11.76H149.952C149.973 11.4187 150.064 11.104 150.224 10.816C150.395 10.5173 150.619 10.2613 150.896 10.048C151.184 9.83467 151.525 9.66933 151.92 9.552C152.315 9.424 152.752 9.36 153.232 9.36C154.235 9.36 155.029 9.6 155.616 10.08C156.213 10.5493 156.512 11.3227 156.512 12.4V15.84C156.512 16.288 156.512 16.6827 156.512 17.024C156.523 17.3547 156.549 17.68 156.592 18H155.36C155.328 17.7547 155.307 17.5253 155.296 17.312C155.285 17.088 155.28 16.8373 155.28 16.56C155.056 17.008 154.693 17.3867 154.192 17.696C153.691 18.0053 153.083 18.16 152.368 18.16ZM152.672 16.88C153.003 16.88 153.312 16.8373 153.6 16.752C153.899 16.656 154.16 16.5227 154.384 16.352C154.608 16.1707 154.784 15.952 154.912 15.696C155.04 15.44 155.104 15.1413 155.104 14.8V14.224H152.592C152.069 14.224 151.659 14.3307 151.36 14.544C151.061 14.7467 150.912 15.072 150.912 15.52C150.912 15.9147 151.051 16.24 151.328 16.496C151.616 16.752 152.064 16.88 152.672 16.88ZM161.963 18.08C161.056 18.08 160.4 17.8773 159.995 17.472C159.6 17.056 159.403 16.432 159.403 15.6V10.768H158.123V9.52H159.403V7.6H160.811V9.52H163.083V10.768H160.811V15.44C160.811 15.92 160.912 16.2667 161.115 16.48C161.317 16.6933 161.707 16.8 162.283 16.8C162.603 16.8 162.923 16.784 163.243 16.752V18C163.04 18.0213 162.837 18.0373 162.635 18.048C162.432 18.0693 162.208 18.08 161.963 18.08ZM168.209 18.16C167.643 18.16 167.153 18.096 166.737 17.968C166.331 17.8293 165.985 17.648 165.697 17.424C165.409 17.2 165.185 16.9387 165.025 16.64C164.865 16.3413 164.753 16.0213 164.689 15.68H166.097C166.171 16.0213 166.369 16.32 166.689 16.576C167.019 16.8213 167.526 16.944 168.209 16.944C168.603 16.944 168.934 16.912 169.201 16.848C169.467 16.7733 169.681 16.6827 169.841 16.576C170.011 16.4587 170.134 16.3253 170.209 16.176C170.283 16.016 170.321 15.8507 170.321 15.68C170.321 15.4987 170.283 15.3387 170.209 15.2C170.145 15.0613 170.022 14.9387 169.841 14.832C169.67 14.7147 169.43 14.6133 169.121 14.528C168.822 14.432 168.443 14.352 167.985 14.288C167.515 14.224 167.089 14.1333 166.705 14.016C166.331 13.888 166.011 13.7227 165.745 13.52C165.489 13.3173 165.286 13.0773 165.137 12.8C164.998 12.512 164.929 12.1653 164.929 11.76C164.929 11.44 164.998 11.136 165.137 10.848C165.275 10.56 165.483 10.304 165.761 10.08C166.038 9.856 166.379 9.68 166.785 9.552C167.19 9.424 167.665 9.36 168.209 9.36C168.71 9.36 169.147 9.42933 169.521 9.568C169.894 9.696 170.209 9.872 170.465 10.096C170.731 10.32 170.939 10.5813 171.089 10.88C171.238 11.1787 171.345 11.4987 171.409 11.84H170.001C169.915 11.4667 169.734 11.1627 169.457 10.928C169.179 10.6933 168.763 10.576 168.209 10.576C167.515 10.576 167.03 10.6933 166.753 10.928C166.475 11.152 166.337 11.4293 166.337 11.76C166.337 11.952 166.369 12.1173 166.433 12.256C166.507 12.3947 166.625 12.5173 166.785 12.624C166.955 12.7307 167.174 12.8213 167.441 12.896C167.718 12.96 168.059 13.0187 168.465 13.072C168.987 13.136 169.451 13.232 169.857 13.36C170.262 13.4773 170.603 13.6427 170.881 13.856C171.158 14.0587 171.366 14.3093 171.505 14.608C171.654 14.9067 171.729 15.264 171.729 15.68C171.729 16.0213 171.654 16.3413 171.505 16.64C171.366 16.9387 171.153 17.2 170.865 17.424C170.577 17.648 170.209 17.8293 169.761 17.968C169.323 18.096 168.806 18.16 168.209 18.16ZM176.149 18.16C175.68 18.16 175.264 18.096 174.901 17.968C174.549 17.8293 174.25 17.6427 174.005 17.408C173.76 17.1733 173.573 16.896 173.445 16.576C173.317 16.256 173.253 15.904 173.253 15.52C173.253 14.6773 173.498 14.0693 173.989 13.696C174.49 13.3227 175.205 13.136 176.133 13.136H178.885V12.56C178.885 11.8347 178.72 11.3333 178.389 11.056C178.069 10.7787 177.584 10.64 176.933 10.64C176.325 10.64 175.882 10.7573 175.605 10.992C175.328 11.216 175.173 11.472 175.141 11.76H173.733C173.754 11.4187 173.845 11.104 174.005 10.816C174.176 10.5173 174.4 10.2613 174.677 10.048C174.965 9.83467 175.306 9.66933 175.701 9.552C176.096 9.424 176.533 9.36 177.013 9.36C178.016 9.36 178.81 9.6 179.397 10.08C179.994 10.5493 180.293 11.3227 180.293 12.4V15.84C180.293 16.288 180.293 16.6827 180.293 17.024C180.304 17.3547 180.33 17.68 180.373 18H179.141C179.109 17.7547 179.088 17.5253 179.077 17.312C179.066 17.088 179.061 16.8373 179.061 16.56C178.837 17.008 178.474 17.3867 177.973 17.696C177.472 18.0053 176.864 18.16 176.149 18.16ZM176.453 16.88C176.784 16.88 177.093 16.8373 177.381 16.752C177.68 16.656 177.941 16.5227 178.165 16.352C178.389 16.1707 178.565 15.952 178.693 15.696C178.821 15.44 178.885 15.1413 178.885 14.8V14.224H176.373C175.85 14.224 175.44 14.3307 175.141 14.544C174.842 14.7467 174.693 15.072 174.693 15.52C174.693 15.9147 174.832 16.24 175.109 16.496C175.397 16.752 175.845 16.88 176.453 16.88ZM182.78 9.52H184.092V11.12C184.38 10.5547 184.78 10.1227 185.292 9.824C185.815 9.51467 186.417 9.36 187.1 9.36C188.167 9.36 189.02 9.712 189.66 10.416C190.3 11.1093 190.62 12.144 190.62 13.52V13.84C190.62 14.5653 190.535 15.2 190.364 15.744C190.193 16.2773 189.953 16.7253 189.644 17.088C189.335 17.44 188.961 17.7067 188.524 17.888C188.097 18.0693 187.623 18.16 187.1 18.16C186.375 18.16 185.767 18 185.276 17.68C184.796 17.36 184.433 16.96 184.188 16.48V21.2H182.78V9.52ZM186.78 16.912C187.121 16.912 187.441 16.848 187.74 16.72C188.039 16.5813 188.295 16.384 188.508 16.128C188.732 15.872 188.903 15.552 189.02 15.168C189.148 14.784 189.212 14.3413 189.212 13.84V13.52C189.212 13.0613 189.148 12.6507 189.02 12.288C188.903 11.9253 188.732 11.6213 188.508 11.376C188.295 11.12 188.039 10.928 187.74 10.8C187.441 10.672 187.121 10.608 186.78 10.608C186.396 10.608 186.044 10.672 185.724 10.8C185.404 10.9173 185.132 11.088 184.908 11.312C184.684 11.5253 184.508 11.7813 184.38 12.08C184.252 12.3787 184.188 12.6987 184.188 13.04V14.32C184.188 14.704 184.252 15.056 184.38 15.376C184.508 15.696 184.684 15.968 184.908 16.192C185.132 16.416 185.404 16.592 185.724 16.72C186.044 16.848 186.396 16.912 186.78 16.912ZM192.624 9.52H193.936V11.12C194.224 10.5547 194.624 10.1227 195.136 9.824C195.658 9.51467 196.261 9.36 196.944 9.36C198.01 9.36 198.864 9.712 199.504 10.416C200.144 11.1093 200.464 12.144 200.464 13.52V13.84C200.464 14.5653 200.378 15.2 200.208 15.744C200.037 16.2773 199.797 16.7253 199.488 17.088C199.178 17.44 198.805 17.7067 198.368 17.888C197.941 18.0693 197.466 18.16 196.944 18.16C196.218 18.16 195.61 18 195.12 17.68C194.64 17.36 194.277 16.96 194.032 16.48V21.2H192.624V9.52ZM196.624 16.912C196.965 16.912 197.285 16.848 197.584 16.72C197.882 16.5813 198.138 16.384 198.352 16.128C198.576 15.872 198.746 15.552 198.864 15.168C198.992 14.784 199.056 14.3413 199.056 13.84V13.52C199.056 13.0613 198.992 12.6507 198.864 12.288C198.746 11.9253 198.576 11.6213 198.352 11.376C198.138 11.12 197.882 10.928 197.584 10.8C197.285 10.672 196.965 10.608 196.624 10.608C196.24 10.608 195.888 10.672 195.568 10.8C195.248 10.9173 194.976 11.088 194.752 11.312C194.528 11.5253 194.352 11.7813 194.224 12.08C194.096 12.3787 194.032 12.6987 194.032 13.04V14.32C194.032 14.704 194.096 15.056 194.224 15.376C194.352 15.696 194.528 15.968 194.752 16.192C194.976 16.416 195.248 16.592 195.568 16.72C195.888 16.848 196.24 16.912 196.624 16.912Z" fill="#4458FF"/>
</svg>
