<svg width="24" height="24" viewBox="0 0 24 24" fill="none" xmlns="http://www.w3.org/2000/svg">
<g id="Group">
<path id="Vector" d="M12 3.10046L7.05 8.05046C6.07111 9.02946 5.40449 10.2767 5.13445 11.6346C4.86442 12.9924 5.00308 14.3999 5.53292 15.6789C6.06275 16.9579 6.95996 18.0512 8.11109 18.8203C9.26222 19.5894 10.6156 20 12 20C13.3844 20 14.7378 19.5894 15.8889 18.8203C17.04 18.0512 17.9373 16.9579 18.4671 15.6789C18.9969 14.3999 19.1356 12.9924 18.8656 11.6346C18.5955 10.2767 17.9289 9.02946 16.95 8.05046L12 3.10046ZM12 0.272461L18.364 6.63646C19.6227 7.89514 20.4798 9.49879 20.8271 11.2446C21.1743 12.9904 20.9961 14.8 20.3149 16.4446C19.6337 18.0891 18.4802 19.4947 17.0001 20.4836C15.5201 21.4725 13.78 22.0004 12 22.0004C10.22 22.0004 8.47992 21.4725 6.99988 20.4836C5.51984 19.4947 4.36629 18.0891 3.6851 16.4446C3.00391 14.8 2.82567 12.9904 3.17293 11.2446C3.52019 9.49879 4.37734 7.89514 5.636 6.63646L12 0.272461ZM13 11.0005H15.5L11 17.5005V13.0005H8.5L13 6.50046V11.0005Z" fill="#4458FF"/>
</g>
</svg>
