<svg width="24" height="24" viewBox="0 0 24 24" fill="none" xmlns="http://www.w3.org/2000/svg">
<g id="Group">
<path id="Vector" d="M16.9999 21.0005H6.99987C5.5831 21.0013 4.21172 20.5009 3.12856 19.5876C2.0454 18.6744 1.32035 17.4073 1.08178 16.0108C0.843215 14.6142 1.10653 13.1783 1.82511 11.9573C2.54368 10.7363 3.67115 9.80893 5.00787 9.33945C4.96259 8.39311 5.10989 7.44743 5.44083 6.55969C5.77178 5.67194 6.2795 4.86062 6.93322 4.17487C7.58694 3.48912 8.37307 2.94321 9.24398 2.57021C10.1149 2.19721 11.0525 2.00488 11.9999 2.00488C12.9473 2.00488 13.8849 2.19721 14.7558 2.57021C15.6267 2.94321 16.4128 3.48912 17.0665 4.17487C17.7203 4.86062 18.228 5.67194 18.5589 6.55969C18.8899 7.44743 19.0372 8.39311 18.9919 9.33945C20.3286 9.80893 21.4561 10.7363 22.1746 11.9573C22.8932 13.1783 23.1565 14.6142 22.918 16.0108C22.6794 17.4073 21.9543 18.6744 20.8712 19.5876C19.788 20.5009 18.4166 21.0013 16.9999 21.0005ZM6.99987 19.0005H16.9999C17.5425 18.9995 18.0793 18.8881 18.5775 18.6731C19.0758 18.4581 19.5251 18.144 19.8981 17.7499C20.2711 17.3557 20.5599 16.8898 20.7472 16.3805C20.9344 15.8712 21.016 15.3291 20.9871 14.7872C20.9581 14.2453 20.8192 13.715 20.5789 13.2285C20.3385 12.742 20.0016 12.3095 19.5888 11.9573C19.1759 11.6051 18.6957 11.3406 18.1774 11.1799C17.6591 11.0192 17.1135 10.9656 16.5739 11.0225C16.9099 10.2613 17.0507 9.42835 16.9835 8.59905C16.9163 7.76975 16.6432 6.97032 16.189 6.27323C15.7348 5.57614 15.1138 5.00343 14.3823 4.60699C13.6508 4.21054 12.8319 4.00292 11.9999 4.00292C11.1679 4.00292 10.349 4.21054 9.61748 4.60699C8.88598 5.00343 8.26497 5.57614 7.81074 6.27323C7.35651 6.97032 7.08342 7.76975 7.01621 8.59905C6.94901 9.42835 7.08982 10.2613 7.42587 11.0225C6.88621 10.9656 6.34062 11.0192 5.82232 11.1799C5.30402 11.3406 4.82383 11.6051 4.41099 11.9573C3.99815 12.3095 3.66128 12.742 3.42089 13.2285C3.1805 13.715 3.04161 14.2453 3.01268 14.7872C2.98374 15.3291 3.06537 15.8712 3.25259 16.3805C3.4398 16.8898 3.7287 17.3557 4.10169 17.7499C4.47468 18.144 4.92396 18.4581 5.42221 18.6731C5.92045 18.8881 6.45723 18.9995 6.99987 19.0005Z" fill="#4458FF"/>
</g>
</svg>
