<svg width="24" height="24" viewBox="0 0 24 24" fill="none" xmlns="http://www.w3.org/2000/svg">
<g id="Group">
<path id="Vector" d="M8.67008 5.00743C9.32639 3.61906 10.421 2.48504 11.7854 1.78011C13.1497 1.07518 14.708 0.838458 16.2201 1.10643C15.9623 1.89631 15.9283 2.74213 16.1217 3.55017C16.3152 4.3582 16.7286 5.09691 17.3161 5.68442C17.9036 6.27194 18.6423 6.68533 19.4503 6.87878C20.2584 7.07223 21.1042 7.03819 21.8941 6.78043C21.9641 7.17643 22.0001 7.58443 22.0001 8.00043C22.0018 9.17984 21.7042 10.3404 21.1351 11.3734C21.9735 12.112 22.5671 13.0885 22.8368 14.1728C23.1065 15.2572 23.0396 16.3979 22.6449 17.4433C22.2502 18.4886 21.5464 19.3889 20.6274 20.0244C19.7083 20.6598 18.6175 21.0003 17.5001 21.0004H9.00008C6.90772 20.9992 4.8991 20.1783 3.40481 18.7137C1.91052 17.2491 1.04951 15.2574 1.00634 13.1655C0.963179 11.0735 1.7413 9.04798 3.1739 7.52298C4.6065 5.99797 6.57955 5.09493 8.67008 5.00743ZM10.8471 5.21443C12.1073 5.51473 13.276 6.11601 14.253 6.96678C15.2301 7.81755 15.9863 8.89245 16.4571 10.0994C17.4476 9.90959 18.4712 9.99431 19.4171 10.3444C19.6431 9.91943 19.8101 9.45943 19.9051 8.97443C18.3928 8.83504 16.9771 8.17072 15.9035 7.0967C14.8298 6.02267 14.1659 4.60671 14.0271 3.09443C12.7283 3.35242 11.5848 4.11478 10.8471 5.21443ZM17.5001 19.0004C18.0771 19.0003 18.6452 18.8576 19.1537 18.5849C19.6622 18.3122 20.0955 17.918 20.4148 17.4373C20.7341 16.9567 20.9297 16.4046 20.984 15.8301C21.0384 15.2556 20.9498 14.6766 20.7263 14.1447C20.5028 13.6127 20.1512 13.1442 19.7029 12.7809C19.2545 12.4177 18.7233 12.1709 18.1565 12.0626C17.5897 11.9543 17.005 11.9878 16.4543 12.1602C15.9036 12.3325 15.404 12.6383 15.0001 13.0504V13.0004C15.0001 11.8137 14.6482 10.6537 13.9889 9.667C13.3296 8.68031 12.3925 7.91128 11.2962 7.45715C10.1998 7.00302 8.99343 6.8842 7.82954 7.11572C6.66565 7.34723 5.59656 7.91867 4.75744 8.75779C3.91833 9.5969 3.34688 10.666 3.11537 11.8299C2.88386 12.9938 3.00268 14.2002 3.4568 15.2965C3.91093 16.3929 4.67997 17.33 5.66666 17.9892C6.65335 18.6485 7.81339 19.0004 9.00008 19.0004H17.5001Z" fill="#4458FF"/>
</g>
</svg>
