<svg width="24" height="24" viewBox="0 0 24 24" fill="none" xmlns="http://www.w3.org/2000/svg">
<g id="Group">
<path id="Vector" d="M7.83021 20.0002C7.66116 20.4781 7.37382 20.9054 6.99499 21.2422C6.61617 21.579 6.1582 21.8144 5.66381 21.9263C5.16943 22.0383 4.65474 22.0232 4.16777 21.8824C3.68079 21.7417 3.23741 21.4799 2.87897 21.1214C2.52054 20.763 2.25874 20.3196 2.11799 19.8326C1.97725 19.3457 1.96215 18.831 2.07411 18.3366C2.18607 17.8422 2.42143 17.3843 2.75824 17.0054C3.09504 16.6266 3.52232 16.3393 4.00021 16.1702V7.83021C3.52232 7.66116 3.09504 7.37382 2.75824 6.99499C2.42143 6.61617 2.18607 6.1582 2.07411 5.66381C1.96215 5.16943 1.97725 4.65474 2.11799 4.16777C2.25874 3.68079 2.52054 3.23741 2.87897 2.87897C3.23741 2.52054 3.68079 2.25874 4.16777 2.11799C4.65474 1.97725 5.16943 1.96215 5.66381 2.07411C6.1582 2.18607 6.61617 2.42143 6.99499 2.75824C7.37382 3.09504 7.66116 3.52232 7.83021 4.00021H16.1702C16.3393 3.52232 16.6266 3.09504 17.0054 2.75824C17.3843 2.42143 17.8422 2.18607 18.3366 2.07411C18.831 1.96215 19.3457 1.97725 19.8326 2.11799C20.3196 2.25874 20.763 2.52054 21.1214 2.87897C21.4799 3.23741 21.7417 3.68079 21.8824 4.16777C22.0232 4.65474 22.0383 5.16943 21.9263 5.66381C21.8144 6.1582 21.579 6.61617 21.2422 6.99499C20.9054 7.37382 20.4781 7.66116 20.0002 7.83021V16.1702C20.4781 16.3393 20.9054 16.6266 21.2422 17.0054C21.579 17.3843 21.8144 17.8422 21.9263 18.3366C22.0383 18.831 22.0232 19.3457 21.8824 19.8326C21.7417 20.3196 21.4799 20.763 21.1214 21.1214C20.763 21.4799 20.3196 21.7417 19.8326 21.8824C19.3457 22.0232 18.831 22.0383 18.3366 21.9263C17.8422 21.8144 17.3843 21.579 17.0054 21.2422C16.6266 20.9054 16.3393 20.4781 16.1702 20.0002H7.83021ZM7.83021 18.0002H16.1702C16.3198 17.5782 16.5617 17.1949 16.8783 16.8783C17.1949 16.5617 17.5782 16.3198 18.0002 16.1702V7.83021C17.5782 7.6806 17.1949 7.43867 16.8783 7.12208C16.5617 6.80548 16.3198 6.42221 16.1702 6.00021H7.83021C7.6806 6.42221 7.43867 6.80548 7.12208 7.12208C6.80548 7.43867 6.42221 7.6806 6.00021 7.83021V16.1702C6.42221 16.3198 6.80548 16.5617 7.12208 16.8783C7.43867 17.1949 7.6806 17.5782 7.83021 18.0002ZM5.00021 6.00021C5.26542 6.00021 5.51978 5.89485 5.70731 5.70731C5.89485 5.51978 6.00021 5.26542 6.00021 5.00021C6.00021 4.73499 5.89485 4.48064 5.70731 4.2931C5.51978 4.10556 5.26542 4.00021 5.00021 4.00021C4.73499 4.00021 4.48064 4.10556 4.2931 4.2931C4.10556 4.48064 4.00021 4.73499 4.00021 5.00021C4.00021 5.26542 4.10556 5.51978 4.2931 5.70731C4.48064 5.89485 4.73499 6.00021 5.00021 6.00021ZM19.0002 6.00021C19.2654 6.00021 19.5198 5.89485 19.7073 5.70731C19.8949 5.51978 20.0002 5.26542 20.0002 5.00021C20.0002 4.73499 19.8949 4.48064 19.7073 4.2931C19.5198 4.10556 19.2654 4.00021 19.0002 4.00021C18.735 4.00021 18.4806 4.10556 18.2931 4.2931C18.1056 4.48064 18.0002 4.73499 18.0002 5.00021C18.0002 5.26542 18.1056 5.51978 18.2931 5.70731C18.4806 5.89485 18.735 6.00021 19.0002 6.00021ZM19.0002 20.0002C19.2654 20.0002 19.5198 19.8949 19.7073 19.7073C19.8949 19.5198 20.0002 19.2654 20.0002 19.0002C20.0002 18.735 19.8949 18.4806 19.7073 18.2931C19.5198 18.1056 19.2654 18.0002 19.0002 18.0002C18.735 18.0002 18.4806 18.1056 18.2931 18.2931C18.1056 18.4806 18.0002 18.735 18.0002 19.0002C18.0002 19.2654 18.1056 19.5198 18.2931 19.7073C18.4806 19.8949 18.735 20.0002 19.0002 20.0002ZM5.00021 20.0002C5.26542 20.0002 5.51978 19.8949 5.70731 19.7073C5.89485 19.5198 6.00021 19.2654 6.00021 19.0002C6.00021 18.735 5.89485 18.4806 5.70731 18.2931C5.51978 18.1056 5.26542 18.0002 5.00021 18.0002C4.73499 18.0002 4.48064 18.1056 4.2931 18.2931C4.10556 18.4806 4.00021 18.735 4.00021 19.0002C4.00021 19.2654 4.10556 19.5198 4.2931 19.7073C4.48064 19.8949 4.73499 20.0002 5.00021 20.0002Z" fill="#4458FF"/>
</g>
</svg>
