<svg width="24" height="24" viewBox="0 0 24 24" fill="none" xmlns="http://www.w3.org/2000/svg">
<g id="Group">
<path id="Vector" d="M7.10501 15.2102C7.75866 15.4693 8.30058 15.9497 8.63619 16.5676C8.97181 17.1855 9.07981 17.9016 8.94136 18.5909C8.80291 19.2803 8.42679 19.8992 7.87864 20.3396C7.33049 20.7799 6.64511 21.0138 5.9421 21.0005C5.23909 20.9871 4.56309 20.7273 4.03207 20.2665C3.50104 19.8056 3.1487 19.1729 3.03654 18.4787C2.92438 17.7846 3.05951 17.0731 3.41836 16.4685C3.77721 15.8638 4.33698 15.4043 5.00001 15.1702V8.83023C4.33251 8.59432 3.76991 8.13003 3.41165 7.51942C3.05338 6.90881 2.92252 6.1912 3.0422 5.49344C3.16187 4.79567 3.52438 4.16268 4.06563 3.70635C4.60689 3.25002 5.29205 2.99974 6.00001 2.99974C6.70796 2.99974 7.39312 3.25002 7.93438 3.70635C8.47564 4.16268 8.83814 4.79567 8.95782 5.49344C9.07749 6.1912 8.94663 6.90881 8.58837 7.51942C8.2301 8.13003 7.6675 8.59432 7.00001 8.83023V12.0002C7.83601 11.3722 8.87401 11.0002 10 11.0002H14C14.6581 11.0003 15.298 10.7839 15.8211 10.3846C16.3442 9.98528 16.7215 9.42506 16.895 8.79023C16.2382 8.53013 15.6942 8.04666 15.3587 7.42492C15.0233 6.80318 14.918 6.08304 15.0613 5.39128C15.2046 4.69952 15.5873 4.08049 16.1421 3.64317C16.697 3.20585 17.3883 2.97827 18.0944 3.00051C18.8005 3.02275 19.4761 3.29338 20.0023 3.76475C20.5285 4.23611 20.8715 4.87801 20.971 5.57741C21.0705 6.27682 20.92 6.9889 20.5461 7.5883C20.1723 8.1877 19.5989 8.63598 18.927 8.85423C18.7256 10.0149 18.1209 11.0672 17.2196 11.8257C16.3182 12.5842 15.178 13.0001 14 13.0002H10C9.3419 13.0002 8.70202 13.2165 8.17892 13.6158C7.65581 14.0152 7.27847 14.5754 7.10501 15.2102ZM6.00001 17.0002C5.73479 17.0002 5.48044 17.1056 5.2929 17.2931C5.10536 17.4807 5.00001 17.735 5.00001 18.0002C5.00001 18.2654 5.10536 18.5198 5.2929 18.7073C5.48044 18.8949 5.73479 19.0002 6.00001 19.0002C6.26522 19.0002 6.51958 18.8949 6.70711 18.7073C6.89465 18.5198 7.00001 18.2654 7.00001 18.0002C7.00001 17.735 6.89465 17.4807 6.70711 17.2931C6.51958 17.1056 6.26522 17.0002 6.00001 17.0002ZM6.00001 5.00023C5.73479 5.00023 5.48044 5.10558 5.2929 5.29312C5.10536 5.48066 5.00001 5.73501 5.00001 6.00023C5.00001 6.26544 5.10536 6.5198 5.2929 6.70733C5.48044 6.89487 5.73479 7.00023 6.00001 7.00023C6.26522 7.00023 6.51958 6.89487 6.70711 6.70733C6.89465 6.5198 7.00001 6.26544 7.00001 6.00023C7.00001 5.73501 6.89465 5.48066 6.70711 5.29312C6.51958 5.10558 6.26522 5.00023 6.00001 5.00023ZM18 5.00023C17.7348 5.00023 17.4804 5.10558 17.2929 5.29312C17.1054 5.48066 17 5.73501 17 6.00023C17 6.26544 17.1054 6.5198 17.2929 6.70733C17.4804 6.89487 17.7348 7.00023 18 7.00023C18.2652 7.00023 18.5196 6.89487 18.7071 6.70733C18.8947 6.5198 19 6.26544 19 6.00023C19 5.73501 18.8947 5.48066 18.7071 5.29312C18.5196 5.10558 18.2652 5.00023 18 5.00023Z" fill="#4458FF"/>
</g>
</svg>
