<svg width="25" height="24" viewBox="0 0 25 24" fill="none" xmlns="http://www.w3.org/2000/svg">
<g id="Group">
<path id="Vector" d="M21.5 6.757L19.5 8.757V4H10.5V9H5.50002V20H19.5V17.243L21.5 15.243V21.008C21.4998 21.2712 21.395 21.5235 21.2088 21.7095C21.0226 21.8955 20.7702 22 20.507 22H4.49302C4.3617 21.9991 4.23185 21.9723 4.11087 21.9212C3.98989 21.8701 3.88017 21.7957 3.78796 21.7022C3.69575 21.6087 3.62286 21.4979 3.57346 21.3762C3.52406 21.2545 3.4991 21.1243 3.50002 20.993V8L9.50303 2H20.498C21.05 2 21.5 2.455 21.5 2.992V6.757ZM22.278 8.807L23.692 10.222L15.914 18L14.498 17.998L14.5 16.586L22.278 8.808V8.807Z" fill="#4458FF"/>
</g>
</svg>
