<svg width="24" height="25" viewBox="0 0 24 25" fill="none" xmlns="http://www.w3.org/2000/svg">
<g id="Group">
<path id="Vector" d="M14 18.1247V16.1247H17.5C18.077 16.1246 18.6451 15.9818 19.1536 15.7091C19.6622 15.4364 20.0954 15.0422 20.4147 14.5616C20.734 14.0809 20.9296 13.5288 20.9839 12.9544C21.0383 12.3799 20.9498 11.8009 20.7262 11.2689C20.5027 10.7369 20.1511 10.2684 19.7028 9.90519C19.2544 9.54194 18.7232 9.29518 18.1564 9.18687C17.5896 9.07856 17.0049 9.11207 16.4542 9.28441C15.9035 9.45675 15.4039 9.76258 15 10.1747V10.1247C15 8.53337 14.3679 7.00724 13.2426 5.88203C12.1174 4.75681 10.5913 4.12467 9 4.12467C7.4087 4.12467 5.88258 4.75681 4.75736 5.88203C3.63214 7.00724 3 8.53337 3 10.1247V10.1317H1V10.1247C0.998489 8.25782 1.6499 6.44923 2.84144 5.01209C4.03297 3.57496 5.68959 2.59978 7.5244 2.25544C9.35922 1.9111 11.2567 2.21929 12.8882 3.12662C14.5197 4.03395 15.7826 5.4833 16.458 7.22367C17.2103 7.07896 17.9846 7.09303 18.7312 7.26497C19.4778 7.43692 20.1802 7.76294 20.7935 8.22215C21.4067 8.68136 21.9173 9.26363 22.2924 9.93164C22.6676 10.5997 22.899 11.3387 22.9719 12.1013C23.0448 12.864 22.9575 13.6335 22.7158 14.3604C22.474 15.0874 22.083 15.7559 21.5678 16.3229C21.0527 16.89 20.4247 17.3432 19.7242 17.6535C19.0237 17.9637 18.2661 18.1242 17.5 18.1247H14ZM6 20.1247H16V22.1247H6V20.1247ZM6 12.1247H14V14.1247H6V12.1247ZM2 16.1247H12V18.1247H2V16.1247Z" fill="#4458FF"/>
</g>
</svg>
