<svg width="24" height="25" viewBox="0 0 24 25" fill="none" xmlns="http://www.w3.org/2000/svg">
<g id="Group">
<path id="Vector" d="M17.0001 21.1255H7.00012C5.58335 21.1263 4.21197 20.6259 3.12881 19.7126C2.04565 18.7994 1.32059 17.5323 1.08202 16.1358C0.843459 14.7392 1.10678 13.3033 1.82535 12.0823C2.54393 10.8613 3.6714 9.93393 5.00812 9.46445C4.96284 8.51811 5.11013 7.57243 5.44108 6.68469C5.77203 5.79694 6.27974 4.98562 6.93346 4.29987C7.58719 3.61412 8.37331 3.06821 9.24422 2.69521C10.1151 2.32221 11.0527 2.12988 12.0001 2.12988C12.9475 2.12988 13.8851 2.32221 14.756 2.69521C15.6269 3.06821 16.413 3.61412 17.0668 4.29987C17.7205 4.98562 18.2282 5.79694 18.5592 6.68469C18.8901 7.57243 19.0374 8.51811 18.9921 9.46445C20.3288 9.93393 21.4563 10.8613 22.1749 12.0823C22.8935 13.3033 23.1568 14.7392 22.9182 16.1358C22.6796 17.5323 21.9546 18.7994 20.8714 19.7126C19.7883 20.6259 18.4169 21.1263 17.0001 21.1255ZM17.0001 9.12545C17.0004 8.45846 16.8672 7.79815 16.6083 7.18342C16.3495 6.56869 15.9703 6.01195 15.4931 5.54599C15.0158 5.08003 14.4502 4.71427 13.8294 4.47024C13.2087 4.22621 12.5454 4.10885 11.8786 4.12506C11.2118 4.14127 10.555 4.29073 9.94681 4.56464C9.33865 4.83855 8.79144 5.23137 8.33741 5.71998C7.88337 6.20858 7.53168 6.78309 7.30304 7.40967C7.07441 8.03626 6.97345 8.70226 7.00612 9.36845L7.07612 10.8565L5.67212 11.3505C4.78262 11.665 4.03287 12.2837 3.55522 13.0974C3.07756 13.911 2.90273 14.8672 3.06158 15.7973C3.22043 16.7273 3.70275 17.5713 4.42339 18.1802C5.14402 18.7892 6.05664 19.124 7.00012 19.1255H17.0001C17.7365 19.1252 18.4584 18.9217 19.0865 18.5374C19.7146 18.1531 20.2244 17.6029 20.5598 16.9473C20.8952 16.2918 21.0431 15.5564 20.9873 14.8222C20.9315 14.088 20.6741 13.3834 20.2434 12.7861C19.8128 12.1888 19.2257 11.722 18.5467 11.4371C17.8677 11.1521 17.1232 11.0601 16.3953 11.1712C15.6674 11.2823 14.9843 11.5922 14.4212 12.0667C13.8582 12.5412 13.437 13.1619 13.2041 13.8605L11.3061 13.2275C11.7049 12.0328 12.4694 10.9939 13.4913 10.2578C14.5132 9.52158 15.7407 9.12546 17.0001 9.12545Z" fill="#4458FF"/>
</g>
</svg>
