<svg width="24" height="25" viewBox="0 0 24 25" fill="none" xmlns="http://www.w3.org/2000/svg">
<g id="Group">
<path id="Vector" d="M5 9.1252C5.26522 9.1252 5.51957 9.23056 5.70711 9.41809C5.89464 9.60563 6 9.85998 6 10.1252C7.57114 10.1229 9.09698 10.6515 10.33 11.6252H12.5C13.832 11.6252 15.03 12.2042 15.853 13.1242L19 13.1252C19.9453 13.1249 20.8712 13.3926 21.6705 13.8972C22.4698 14.4019 23.1097 15.1227 23.516 15.9762C21.151 19.0972 17.322 21.1252 13 21.1252C10.21 21.1252 7.85 20.5222 5.94 19.4672C5.87004 19.6603 5.74224 19.827 5.57402 19.9448C5.40579 20.0626 5.20534 20.1255 5 20.1252H2C1.73478 20.1252 1.48043 20.0198 1.29289 19.8323C1.10536 19.6448 1 19.3904 1 19.1252V10.1252C1 9.85998 1.10536 9.60563 1.29289 9.41809C1.48043 9.23056 1.73478 9.1252 2 9.1252H5ZM6.001 12.1252L6 17.1462L6.045 17.1792C7.84 18.4392 10.178 19.1252 13 19.1252C16.004 19.1252 18.799 17.9692 20.835 15.9952L20.968 15.8622L20.848 15.7622C20.3758 15.3924 19.8034 15.1729 19.205 15.1322L19 15.1252L16.888 15.1242C16.961 15.4462 17 15.7812 17 16.1252V17.1252H8V15.1252L14.79 15.1242L14.756 15.0462C14.5644 14.6457 14.2696 14.3035 13.9019 14.0547C13.5343 13.8058 13.107 13.6593 12.664 13.6302L12.5 13.6252H9.57C9.10531 13.1499 8.55027 12.7724 7.93752 12.5148C7.32477 12.2572 6.66669 12.1247 6.002 12.1252H6.001ZM4 11.1252H3V18.1252H4V11.1252ZM13.646 3.7002L14 4.0552L14.354 3.7012C14.5858 3.46742 14.8615 3.28173 15.1653 3.15478C15.469 3.02784 15.7949 2.96214 16.1241 2.96147C16.4533 2.96079 16.7795 3.02515 17.0837 3.15085C17.388 3.27655 17.6645 3.46112 17.8973 3.69395C18.13 3.92678 18.3145 4.20329 18.4401 4.50761C18.5657 4.81193 18.63 5.13806 18.6292 5.46729C18.6285 5.79651 18.5627 6.12234 18.4356 6.42607C18.3086 6.72981 18.1228 7.00546 17.889 7.2372L14 11.1252L10.11 7.2352C9.87622 7.00339 9.69053 6.72769 9.56358 6.42392C9.43664 6.12015 9.37094 5.7943 9.37027 5.46508C9.36959 5.13585 9.43396 4.80974 9.55965 4.50545C9.68535 4.20117 9.86992 3.92471 10.1027 3.69194C10.3356 3.45918 10.6121 3.27469 10.9164 3.14908C11.2207 3.02347 11.5469 2.9592 11.8761 2.95997C12.2053 2.96073 12.5311 3.02652 12.8349 3.15355C13.1386 3.28058 13.4143 3.46635 13.646 3.7002ZM11.526 5.1152C11.4431 5.19762 11.3917 5.30647 11.3808 5.42285C11.3698 5.53922 11.4 5.65575 11.466 5.7522L11.524 5.8212L14 8.2952L16.476 5.8212C16.5588 5.73847 16.61 5.6293 16.6206 5.51271C16.6312 5.39612 16.6006 5.27951 16.534 5.1832L16.476 5.1132C16.3931 5.03052 16.2839 4.97954 16.1673 4.96912C16.0507 4.95871 15.9342 4.98952 15.838 5.0562L15.768 5.1142L13.999 6.8822L12.232 5.1122L12.164 5.0562C12.0677 4.98965 11.9511 4.959 11.8345 4.9696C11.7179 4.9802 11.6087 5.03137 11.526 5.1142V5.1152Z" fill="#4458FF"/>
</g>
</svg>
