<svg width="25" height="25" viewBox="0 0 25 25" fill="none" xmlns="http://www.w3.org/2000/svg">
<g id="Group">
<path id="Vector" d="M8.43006 20.3752C8.26102 20.8531 7.97367 21.2804 7.59485 21.6172C7.21602 21.954 6.75805 22.1894 6.26366 22.3013C5.76928 22.4133 5.25459 22.3982 4.76762 22.2574C4.28065 22.1167 3.83726 21.8549 3.47883 21.4964C3.12039 21.138 2.85859 20.6946 2.71785 20.2076C2.57711 19.7207 2.56201 19.206 2.67396 18.7116C2.78592 18.2172 3.02128 17.7593 3.35809 17.3804C3.6949 17.0016 4.12218 16.7143 4.60006 16.5452V8.20521C4.12218 8.03616 3.6949 7.74882 3.35809 7.36999C3.02128 6.99117 2.78592 6.5332 2.67396 6.03881C2.56201 5.54443 2.57711 5.02974 2.71785 4.54277C2.85859 4.05579 3.12039 3.61241 3.47883 3.25397C3.83726 2.89554 4.28065 2.63374 4.76762 2.49299C5.25459 2.35225 5.76928 2.33715 6.26366 2.44911C6.75805 2.56107 7.21602 2.79643 7.59485 3.13324C7.97367 3.47004 8.26102 3.89732 8.43006 4.37521H16.7701C16.9391 3.89732 17.2264 3.47004 17.6053 3.13324C17.9841 2.79643 18.4421 2.56107 18.9365 2.44911C19.4308 2.33715 19.9455 2.35225 20.4325 2.49299C20.9195 2.63374 21.3629 2.89554 21.7213 3.25397C22.0797 3.61241 22.3415 4.05579 22.4823 4.54277C22.623 5.02974 22.6381 5.54443 22.5262 6.03881C22.4142 6.5332 22.1788 6.99117 21.842 7.36999C21.5052 7.74882 21.0779 8.03616 20.6001 8.20521V16.5452C21.0779 16.7143 21.5052 17.0016 21.842 17.3804C22.1788 17.7593 22.4142 18.2172 22.5262 18.7116C22.6381 19.206 22.623 19.7207 22.4823 20.2076C22.3415 20.6946 22.0797 21.138 21.7213 21.4964C21.3629 21.8549 20.9195 22.1167 20.4325 22.2574C19.9455 22.3982 19.4308 22.4133 18.9365 22.3013C18.4421 22.1894 17.9841 21.954 17.6053 21.6172C17.2264 21.2804 16.9391 20.8531 16.7701 20.3752H8.43006ZM8.43006 18.3752H16.7701C16.9197 17.9532 17.1616 17.5699 17.4782 17.2533C17.7948 16.9367 18.1781 16.6948 18.6001 16.5452V8.20521C18.1781 8.0556 17.7948 7.81367 17.4782 7.49708C17.1616 7.18048 16.9197 6.79721 16.7701 6.37521H8.43006C8.28045 6.79721 8.03853 7.18048 7.72193 7.49708C7.40534 7.81367 7.02206 8.0556 6.60006 8.20521V16.5452C7.02206 16.6948 7.40534 16.9367 7.72193 17.2533C8.03853 17.5699 8.28045 17.9532 8.43006 18.3752ZM5.60006 6.37521C5.86528 6.37521 6.11963 6.26985 6.30717 6.08231C6.4947 5.89478 6.60006 5.64042 6.60006 5.37521C6.60006 5.10999 6.4947 4.85564 6.30717 4.6681C6.11963 4.48056 5.86528 4.37521 5.60006 4.37521C5.33484 4.37521 5.08049 4.48056 4.89295 4.6681C4.70542 4.85564 4.60006 5.10999 4.60006 5.37521C4.60006 5.64042 4.70542 5.89478 4.89295 6.08231C5.08049 6.26985 5.33484 6.37521 5.60006 6.37521ZM19.6001 6.37521C19.8653 6.37521 20.1196 6.26985 20.3072 6.08231C20.4947 5.89478 20.6001 5.64042 20.6001 5.37521C20.6001 5.10999 20.4947 4.85564 20.3072 4.6681C20.1196 4.48056 19.8653 4.37521 19.6001 4.37521C19.3348 4.37521 19.0805 4.48056 18.893 4.6681C18.7054 4.85564 18.6001 5.10999 18.6001 5.37521C18.6001 5.64042 18.7054 5.89478 18.893 6.08231C19.0805 6.26985 19.3348 6.37521 19.6001 6.37521ZM19.6001 20.3752C19.8653 20.3752 20.1196 20.2699 20.3072 20.0823C20.4947 19.8948 20.6001 19.6404 20.6001 19.3752C20.6001 19.11 20.4947 18.8556 20.3072 18.6681C20.1196 18.4806 19.8653 18.3752 19.6001 18.3752C19.3348 18.3752 19.0805 18.4806 18.893 18.6681C18.7054 18.8556 18.6001 19.11 18.6001 19.3752C18.6001 19.6404 18.7054 19.8948 18.893 20.0823C19.0805 20.2699 19.3348 20.3752 19.6001 20.3752ZM5.60006 20.3752C5.86528 20.3752 6.11963 20.2699 6.30717 20.0823C6.4947 19.8948 6.60006 19.6404 6.60006 19.3752C6.60006 19.11 6.4947 18.8556 6.30717 18.6681C6.11963 18.4806 5.86528 18.3752 5.60006 18.3752C5.33484 18.3752 5.08049 18.4806 4.89295 18.6681C4.70542 18.8556 4.60006 19.11 4.60006 19.3752C4.60006 19.6404 4.70542 19.8948 4.89295 20.0823C5.08049 20.2699 5.33484 20.3752 5.60006 20.3752Z" fill="#4458FF"/>
</g>
</svg>
