<svg width="25" height="25" viewBox="0 0 25 25" fill="none" xmlns="http://www.w3.org/2000/svg">
<g id="Group">
<path id="Vector" d="M13.2 2.425C18.253 2.926 22.2 7.19 22.2 12.375V13.375H13.2V19.375C13.2 19.9054 13.4107 20.4141 13.7857 20.7892C14.1608 21.1643 14.6695 21.375 15.2 21.375C15.7304 21.375 16.2391 21.1643 16.6142 20.7892C16.9892 20.4141 17.2 19.9054 17.2 19.375V18.375H19.2V19.375C19.2 20.4359 18.7785 21.4533 18.0284 22.2034C17.2782 22.9536 16.2608 23.375 15.2 23.375C14.1391 23.375 13.1217 22.9536 12.3715 22.2034C11.6214 21.4533 11.2 20.4359 11.2 19.375V13.375H2.19995V12.375C2.19995 7.19 6.14695 2.926 11.2 2.425V2.375C11.2 2.10978 11.3053 1.85543 11.4928 1.66789C11.6804 1.48036 11.9347 1.375 12.2 1.375C12.4652 1.375 12.7195 1.48036 12.9071 1.66789C13.0946 1.85543 13.2 2.10978 13.2 2.375V2.425ZM20.138 11.375C19.8939 9.4419 18.9529 7.66427 17.4914 6.37568C16.0299 5.08708 14.1484 4.37608 12.2 4.37608C10.2515 4.37608 8.37002 5.08708 6.90852 6.37568C5.44703 7.66427 4.50598 9.4419 4.26195 11.375H20.138Z" fill="#4458FF"/>
</g>
</svg>
