<svg width="478" height="129" viewBox="0 0 478 129" fill="none" xmlns="http://www.w3.org/2000/svg">
<path d="M0.333333 117.671C0.333333 119.144 1.52724 120.338 3 120.338C4.47276 120.338 5.66667 119.144 5.66667 117.671C5.66667 116.198 4.47276 115.004 3 115.004C1.52724 115.004 0.333333 116.198 0.333333 117.671ZM472.333 13.7242C472.333 15.1969 473.527 16.3908 475 16.3908C476.473 16.3908 477.667 15.1969 477.667 13.7242C477.667 12.2514 476.473 11.0575 475 11.0575C473.527 11.0575 472.333 12.2514 472.333 13.7242ZM2.81449 118.135C41.9551 133.774 80.8306 130.689 119.651 118.396C158.457 106.108 197.253 84.603 236.239 63.3636C314.288 20.8434 393.063 -20.5678 474.804 14.1843L475.196 13.264C392.937 -21.708 313.712 20.0188 235.761 62.4854C196.747 83.7394 158.043 105.19 119.349 117.443C80.6694 129.691 42.0449 132.733 3.18551 117.207L2.81449 118.135Z" fill="white"/>
</svg>
