<svg width="334" height="90" viewBox="0 0 334 90" fill="none" xmlns="http://www.w3.org/2000/svg">
<path d="M0.333333 81.9408C0.333333 83.4135 1.52724 84.6074 3 84.6074C4.47276 84.6074 5.66667 83.4135 5.66667 81.9408C5.66667 80.468 4.47276 79.2741 3 79.2741C1.52724 79.2741 0.333333 80.468 0.333333 81.9408ZM328.333 9.70644C328.333 11.1792 329.527 12.3731 331 12.3731C332.473 12.3731 333.667 11.1792 333.667 9.70644C333.667 8.23369 332.473 7.03978 331 7.03978C329.527 7.03978 328.333 8.23369 328.333 9.70644ZM2.81449 82.4051C30.0568 93.2896 57.1102 91.1393 84.1086 82.59C111.092 74.0454 138.066 59.0929 165.154 44.3356C219.407 14.7795 274.08 -13.9496 330.804 10.1666L331.196 9.2463C273.954 -15.0898 218.83 13.9549 164.676 43.4574C137.561 58.2294 110.679 73.1273 83.8067 81.6367C56.9491 90.1414 30.1466 92.2486 3.18551 81.4765L2.81449 82.4051Z" fill="white"/>
</svg>
