<svg width="32" height="32" viewBox="0 0 32 32" fill="none" xmlns="http://www.w3.org/2000/svg">
<path fill-rule="evenodd" clip-rule="evenodd" d="M16.4138 9.41566C13.0123 9.2366 10.3579 11.606 9.77255 15.3144C9.28782 18.3854 10.1472 22.1275 10.8823 22.3159C11.1941 22.3958 11.9444 21.8197 12.4903 21.3029C12.5929 21.2058 12.7481 21.1895 12.8685 21.2633C13.7194 21.7857 14.6829 22.1782 15.745 22.2341C19.237 22.4179 22.3316 19.6744 22.5145 16.1686C22.6974 12.6629 19.9058 9.59949 16.4138 9.41566ZM10.7177 27.2193C10.586 27.1257 10.4046 27.1511 10.2942 27.2693C8.81897 28.8488 5.04345 29.9567 4.8705 27.8009C4.8705 26.1119 4.49258 24.6885 4.07649 23.1214C3.56688 21.2021 3 19.0671 3 15.9641C3 8.56471 9.04519 3 16.2128 3C23.3803 3 29 8.8364 29 16.036C29 23.2355 23.2014 28.9282 16.2806 28.9282C13.8252 28.9282 12.6337 28.581 10.7177 27.2193Z" fill="white"/>
</svg>
